# Blender 3.5.1
# www.blender.org
mtllib Pawn1.mtl
o Pawn.001
v 0.188977 0.000000 1.327318
v -0.188977 0.000000 1.327318
v 0.188977 0.077699 1.327318
v -0.188977 0.077699 1.327318
v 0.176198 0.129366 1.305184
v -0.176198 0.129366 1.305184
v 0.143086 0.155533 1.247832
v -0.143086 0.155533 1.247832
v -0.377955 -0.000000 1.000000
v 0.377955 0.000000 1.000000
v 0.188977 -0.000000 0.672682
v -0.188977 -0.000000 0.672682
v -0.377955 0.077699 1.000000
v 0.377955 0.077699 1.000000
v 0.188977 0.077699 0.672682
v -0.188977 0.077699 0.672682
v -0.352396 0.129366 1.000000
v 0.352396 0.129366 1.000000
v 0.176198 0.129366 0.694816
v -0.176198 0.129366 0.694816
v 0.286172 0.155533 1.000000
v 0.143086 0.155533 0.752168
v -0.143086 0.155533 0.752168
v -0.286172 0.155533 1.000000
v 0.000000 0.000000 1.000000
vn -0.8660 -0.0000 0.5000
vn -0.0000 -0.0000 1.0000
vn 0.8660 -0.0000 0.5000
vn -0.7961 0.3938 0.4596
vn -0.0000 0.3938 0.9192
vn 0.7961 0.3938 0.4596
vn 0.3595 0.9098 0.2075
vn -0.0000 0.9098 0.4151
vn -0.3595 0.9098 0.2075
vn -0.0000 -1.0000 -0.0000
vn -0.8660 -0.0000 -0.5000
vn -0.0000 -0.0000 -1.0000
vn 0.8660 -0.0000 -0.5000
vn -0.7961 0.3938 -0.4596
vn -0.0000 0.3938 -0.9192
vn 0.7961 0.3938 -0.4596
vn 0.3595 0.9098 -0.2075
vn -0.0000 0.9098 -0.4151
vn -0.3595 0.9098 -0.2075
vt 0.519400 0.014536
vt 0.029564 0.429024
vt 0.519401 0.014536
vt 0.029565 0.429022
vt 0.547499 0.047743
vt 0.057663 0.462230
vt 0.547500 0.047743
vt 0.057664 0.462229
vt 0.094553 0.472239
vt 0.551265 0.085781
vt 0.094553 0.472238
vt 0.551266 0.085780
vt 0.160265 0.462868
vt 0.531149 0.149036
vt 0.160266 0.462867
vt 0.531149 0.149036
vt 0.029566 0.429021
vt 0.519398 0.014537
vt 0.519400 0.014536
vt 0.029564 0.429024
vt 0.519401 0.014536
vt 0.029565 0.429022
vt 0.057664 0.462229
vt 0.547497 0.047744
vt 0.547499 0.047743
vt 0.057663 0.462230
vt 0.547500 0.047743
vt 0.057664 0.462229
vt 0.094554 0.472237
vt 0.551263 0.085781
vt 0.094553 0.472239
vt 0.551265 0.085781
vt 0.094553 0.472238
vt 0.551266 0.085780
vt 0.531147 0.149036
vt 0.160265 0.462868
vt 0.531149 0.149036
vt 0.160266 0.462867
vt 0.531149 0.149036
vt 0.160266 0.462867
vt 0.156107 0.081891
s 1
usemtl Pawn
f 2/3/1 4/7/1 13/23/1 9/17/1
f 1/1/2 3/5/2 4/8/2 2/4/2
f 10/18/3 14/24/3 3/6/3 1/2/3
f 4/7/4 6/12/4 17/29/4 13/23/4
f 3/5/5 5/10/5 6/11/5 4/8/5
f 14/24/6 18/30/6 5/9/6 3/6/6
f 18/30/7 21/35/7 7/13/7 5/9/7
f 5/10/8 7/14/8 8/15/8 6/11/8
f 6/12/9 8/16/9 24/40/9 17/29/9
f 9/17/10 25/41/10 2/3/10
f 2/4/10 25/41/10 1/1/10
f 10/18/10 1/2/10 25/41/10
f 12/21/11 9/17/11 13/23/11 16/27/11
f 11/19/12 12/22/12 16/28/12 15/25/12
f 10/18/13 11/20/13 15/26/13 14/24/13
f 16/27/14 13/23/14 17/29/14 20/34/14
f 15/25/15 16/28/15 20/33/15 19/32/15
f 14/24/16 15/26/16 19/31/16 18/30/16
f 18/30/17 19/31/17 22/36/17 21/35/17
f 19/32/18 20/33/18 23/38/18 22/37/18
f 20/34/19 17/29/19 24/40/19 23/39/19
f 9/17/10 12/21/10 25/41/10
f 12/22/10 11/19/10 25/41/10
f 10/18/10 25/41/10 11/20/10
