# Blender 3.5.1
# www.blender.org
mtllib Pawn4.mtl
o Pawn.004
v 0.052845 0.676872 1.091530
v -0.052845 0.676872 1.091530
v 0.070308 0.459035 1.121777
v -0.070308 0.459035 1.121777
v -0.105690 0.676872 1.000000
v 0.105690 0.676872 1.000000
v 0.052845 0.676872 0.908470
v -0.052845 0.676872 0.908470
v -0.140616 0.459035 1.000000
v 0.140615 0.459035 1.000000
v 0.070308 0.459035 0.878223
v -0.070308 0.459035 0.878223
vn 0.8578 0.1375 0.4952
vn -0.0000 0.1375 0.9905
vn -0.8578 0.1375 0.4952
vn 0.8578 0.1375 -0.4952
vn -0.0000 0.1375 -0.9905
vn -0.8578 0.1375 -0.4952
vt 0.488106 0.613128
vt 0.625081 0.497224
vt 0.488106 0.613129
vt 0.625082 0.497224
vt 0.385938 0.538285
vt 0.568179 0.384079
vt 0.385939 0.538286
vt 0.568179 0.384079
vt 0.488106 0.613129
vt 0.625081 0.497223
vt 0.488106 0.613128
vt 0.625081 0.497224
vt 0.488106 0.613129
vt 0.625082 0.497224
vt 0.385939 0.538285
vt 0.568178 0.384079
vt 0.385938 0.538285
vt 0.568179 0.384079
vt 0.385939 0.538286
vt 0.568179 0.384079
s 1
usemtl Pawn
f 10/16/1 6/10/1 1/1/1 3/5/1
f 3/6/2 1/2/2 2/3/2 4/7/2
f 4/8/3 2/4/3 5/9/3 9/15/3
f 10/16/4 11/17/4 7/11/4 6/10/4
f 11/18/5 12/19/5 8/13/5 7/12/5
f 12/20/6 9/15/6 5/9/6 8/14/6
