# Blender 3.5.1
# www.blender.org
mtllib Pawn3.mtl
o Pawn.003
v 0.108110 0.268818 1.187253
v -0.108110 0.268818 1.187253
v 0.070308 0.459035 1.121777
v -0.070308 0.459035 1.121777
v -0.216221 0.268818 1.000000
v 0.216221 0.268818 1.000000
v 0.108110 0.268818 0.812747
v -0.108110 0.268818 0.812747
v -0.140616 0.459035 1.000000
v 0.140615 0.459035 1.000000
v 0.070308 0.459035 0.878223
v -0.070308 0.459035 0.878223
vn -0.8189 0.3255 0.4728
vn -0.0000 0.3255 0.9456
vn 0.8189 0.3255 0.4728
vn -0.8189 0.3255 -0.4728
vn -0.0000 0.3255 -0.9456
vn 0.8189 0.3255 -0.4728
vt 0.544420 0.256645
vt 0.264194 0.493765
vt 0.544420 0.256645
vt 0.264194 0.493764
vt 0.568179 0.384079
vt 0.385938 0.538285
vt 0.568179 0.384079
vt 0.385939 0.538286
vt 0.264195 0.493764
vt 0.544419 0.256645
vt 0.544420 0.256645
vt 0.264194 0.493765
vt 0.544420 0.256645
vt 0.264194 0.493764
vt 0.385939 0.538285
vt 0.568178 0.384079
vt 0.568179 0.384079
vt 0.385938 0.538285
vt 0.568179 0.384079
vt 0.385939 0.538286
s 1
usemtl Pawn
f 2/3/1 4/7/1 9/15/1 5/9/1
f 1/1/2 3/5/2 4/8/2 2/4/2
f 6/10/3 10/16/3 3/6/3 1/2/3
f 8/13/4 5/9/4 9/15/4 12/19/4
f 7/11/5 8/14/5 12/20/5 11/17/5
f 6/10/6 7/12/6 11/18/6 10/16/6
