# Blender 3.5.1
# www.blender.org
mtllib King7.mtl
o King.007
v -3.939183 1.166549 -0.105331
v -4.060810 1.166549 -0.105331
v -4.100962 1.515965 -0.174734
v -3.899174 1.515951 -0.174747
v -4.123780 1.472500 -0.214224
v -3.876394 1.472486 -0.214239
v -4.037171 1.538022 -0.064392
v -3.962810 1.538017 -0.064397
v -3.939183 1.166549 0.105331
v -4.060810 1.166549 0.105331
v -4.100962 1.515965 0.174733
v -3.899174 1.515951 0.174747
v -4.123780 1.472500 0.214224
v -3.876394 1.472486 0.214239
v -4.121171 1.166631 -0.000000
v -3.878371 1.166549 -0.000000
v -4.201119 1.516048 -0.000000
v -3.798279 1.515944 -0.000000
v -3.752698 1.472479 -0.000000
v -4.246570 1.472615 -0.000000
v -4.037171 1.538022 0.064392
v -3.962810 1.538017 0.064397
v -4.074081 1.538053 -0.000000
v -3.925628 1.538015 -0.000000
vn -0.6423 0.6721 -0.3685
vn -0.0000 0.6725 -0.7401
vn 0.6411 0.6723 -0.3701
vn 0.8159 -0.3352 -0.4711
vn -0.0000 -0.3353 -0.9421
vn -0.8176 -0.3350 -0.4684
vn 0.0001 0.9806 -0.1961
vn 0.1699 0.9806 -0.0981
vn -0.1699 0.9806 -0.0978
vn -0.6423 0.6721 0.3685
vn -0.0000 0.6725 0.7401
vn 0.6411 0.6723 0.3701
vn 0.8159 -0.3352 0.4711
vn -0.0000 -0.3353 0.9421
vn -0.8176 -0.3350 0.4684
vn 0.0001 0.9806 0.1961
vn 0.1699 0.9806 0.0981
vn -0.1699 0.9806 0.0978
vt 0.739605 0.653811
vt 0.667949 0.724623
vt 0.739867 0.653509
vt 0.667944 0.724606
vt 0.892188 0.764911
vt 0.772350 0.883297
vt 0.772867 0.882892
vt 0.891807 0.765309
vt 0.885988 0.730915
vt 0.739164 0.875988
vt 0.885624 0.731311
vt 0.739705 0.875558
vt 0.892199 0.841786
vt 0.847806 0.885562
vt 0.848228 0.885264
vt 0.891791 0.842158
vt 0.739605 0.653811
vt 0.667949 0.724623
vt 0.739867 0.653509
vt 0.667944 0.724606
vt 0.892188 0.764911
vt 0.772350 0.883297
vt 0.772867 0.882892
vt 0.891807 0.765309
vt 0.885988 0.730915
vt 0.739164 0.875988
vt 0.885624 0.731311
vt 0.739705 0.875558
vt 0.739812 0.653711
vt 0.667672 0.724909
vt 0.891564 0.765667
vt 0.772466 0.883263
vt 0.739312 0.875922
vt 0.885324 0.731778
vt 0.892199 0.841786
vt 0.847806 0.885562
vt 0.848228 0.885264
vt 0.891791 0.842158
vt 0.891739 0.842213
vt 0.847812 0.885626
s 1
usemtl King.001
f 5/10/1 20/34/1 17/31/1 3/6/1
f 6/12/2 5/9/2 3/5/2 4/7/2
f 19/33/3 6/11/3 4/8/3 18/32/3
f 16/30/4 1/1/4 6/11/4 19/33/4
f 1/2/5 2/3/5 5/9/5 6/12/5
f 2/4/6 15/29/6 20/34/6 5/10/6
f 4/7/7 3/5/7 7/13/7 8/15/7
f 18/32/8 4/8/8 8/16/8 24/40/8
f 3/6/9 17/31/9 23/39/9 7/14/9
f 13/26/10 11/22/10 17/31/10 20/34/10
f 14/28/11 12/23/11 11/21/11 13/25/11
f 19/33/12 18/32/12 12/24/12 14/27/12
f 16/30/13 19/33/13 14/27/13 9/17/13
f 9/18/14 14/28/14 13/25/14 10/19/14
f 10/20/15 13/26/15 20/34/15 15/29/15
f 12/23/16 22/37/16 21/35/16 11/21/16
f 18/32/17 24/40/17 22/38/17 12/24/17
f 11/22/18 21/36/18 23/39/18 17/31/18
