# Blender 3.5.1
# www.blender.org
mtllib King4.mtl
o King.004
v -3.941677 1.038013 -0.101019
v -4.058323 1.038013 -0.101019
v -3.917900 0.511166 -0.142201
v -4.082100 0.511166 -0.142201
v -3.941677 1.038013 0.101019
v -4.058323 1.038013 0.101019
v -3.917900 0.511166 0.142201
v -4.082100 0.511166 0.142201
v -4.116647 1.038013 -0.000000
v -3.883353 1.038013 -0.000000
v -4.164199 0.511166 -0.000000
v -3.835801 0.511166 -0.000000
vn 0.8634 0.0779 -0.4985
vn -0.0000 0.0779 -0.9970
vn -0.8634 0.0779 -0.4985
vn 0.8634 0.0779 0.4985
vn -0.0000 0.0779 0.9970
vn -0.8634 0.0779 0.4985
vt 0.629598 0.541267
vt 0.560809 0.609221
vt 0.629783 0.541018
vt 0.560808 0.609221
vt 0.466588 0.341382
vt 0.369570 0.437243
vt 0.466663 0.341238
vt 0.369570 0.437243
vt 0.629598 0.541267
vt 0.560809 0.609221
vt 0.629783 0.541018
vt 0.560808 0.609221
vt 0.466588 0.341382
vt 0.369570 0.437243
vt 0.466663 0.341238
vt 0.369570 0.437243
vt 0.629783 0.541019
vt 0.560610 0.609455
vt 0.466663 0.341238
vt 0.369476 0.437368
s 1
usemtl King.001
f 12/20/1 3/5/1 1/1/1 10/18/1
f 3/6/2 4/7/2 2/3/2 1/2/2
f 4/8/3 11/19/3 9/17/3 2/4/3
f 12/20/4 10/18/4 5/9/4 7/13/4
f 7/14/5 5/10/5 6/11/5 8/15/5
f 8/16/6 6/12/6 9/17/6 11/19/6
