# Blender 3.5.1
# www.blender.org
mtllib King6.mtl
o King.006
v -3.939183 1.166549 -0.105331
v -4.060810 1.166549 -0.105331
v -3.917562 1.115991 -0.142772
v -4.082428 1.115984 -0.142776
v -3.917514 1.153870 -0.142909
v -4.082530 1.153870 -0.142909
v -3.907661 1.140687 -0.159962
v -4.092364 1.140698 -0.159959
v -3.939183 1.166549 0.105331
v -4.060810 1.166549 0.105331
v -3.917562 1.115991 0.142772
v -4.082428 1.115984 0.142776
v -3.917514 1.153870 0.142909
v -4.082530 1.153870 0.142909
v -3.907661 1.140687 0.159962
v -4.092364 1.140698 0.159959
v -4.121171 1.166631 -0.000000
v -3.878371 1.166549 -0.000000
v -4.164606 1.116031 -0.000000
v -3.835132 1.115991 -0.000000
v -4.164443 1.153965 -0.000000
v -3.835006 1.153870 -0.000000
v -4.184271 1.140736 -0.000000
v -3.815307 1.140687 -0.000000
vn 0.2770 0.9475 -0.1599
vn -0.0000 0.9475 -0.3197
vn -0.2772 0.9475 -0.1596
vn -0.5297 0.7917 -0.3044
vn -0.0000 0.7913 -0.6115
vn 0.5295 0.7913 -0.3057
vn 0.7111 -0.5708 -0.4105
vn -0.0000 -0.5711 -0.8209
vn -0.7127 -0.5694 -0.4097
vn 0.2770 0.9475 0.1599
vn -0.0000 0.9475 0.3197
vn -0.2772 0.9475 0.1596
vn -0.5297 0.7917 0.3044
vn -0.0000 0.7913 0.6115
vn 0.5295 0.7913 0.3057
vn 0.7111 -0.5708 0.4105
vn -0.0000 -0.5711 0.8209
vn -0.7127 -0.5694 0.4097
vt 0.739605 0.653811
vt 0.667949 0.724623
vt 0.739867 0.653509
vt 0.667944 0.724606
vt 0.721804 0.609053
vt 0.624550 0.705151
vt 0.722036 0.608754
vt 0.624551 0.705149
vt 0.641838 0.723344
vt 0.739162 0.627171
vt 0.641799 0.723364
vt 0.739413 0.626859
vt 0.737759 0.613829
vt 0.628785 0.721524
vt 0.738004 0.613531
vt 0.628745 0.721562
vt 0.739605 0.653811
vt 0.667949 0.724623
vt 0.739867 0.653509
vt 0.667944 0.724606
vt 0.721804 0.609053
vt 0.624550 0.705151
vt 0.722036 0.608754
vt 0.624551 0.705149
vt 0.641838 0.723344
vt 0.739162 0.627171
vt 0.641799 0.723364
vt 0.739413 0.626859
vt 0.737759 0.613829
vt 0.628785 0.721524
vt 0.738004 0.613531
vt 0.628745 0.721562
vt 0.739812 0.653711
vt 0.667672 0.724909
vt 0.722037 0.608908
vt 0.624302 0.705424
vt 0.739305 0.627166
vt 0.641567 0.723634
vt 0.737885 0.613753
vt 0.628518 0.721804
s 1
usemtl King.001
f 5/10/1 1/1/1 18/34/1 22/38/1
f 6/12/2 2/3/2 1/2/2 5/9/2
f 21/37/3 17/33/3 2/4/3 6/11/3
f 23/39/4 21/37/4 6/11/4 8/16/4
f 8/15/5 6/12/5 5/9/5 7/14/5
f 7/13/6 5/10/6 22/38/6 24/40/6
f 3/5/7 7/13/7 24/40/7 20/36/7
f 4/7/8 8/15/8 7/14/8 3/6/8
f 19/35/9 23/39/9 8/16/9 4/8/9
f 13/26/10 22/38/10 18/34/10 9/17/10
f 14/28/11 13/25/11 9/18/11 10/19/11
f 21/37/12 14/27/12 10/20/12 17/33/12
f 23/39/13 16/32/13 14/27/13 21/37/13
f 16/31/14 15/30/14 13/25/14 14/28/14
f 15/29/15 24/40/15 22/38/15 13/26/15
f 11/21/16 20/36/16 24/40/16 15/29/16
f 12/23/17 11/22/17 15/30/17 16/31/17
f 19/35/18 12/24/18 16/32/18 23/39/18
