# Blender 3.5.1
# www.blender.org
mtllib King3.mtl
o King.003
v -3.874664 0.311650 -0.217088
v -4.125336 0.311650 -0.217088
v -3.917900 0.511166 -0.142201
v -4.082100 0.511166 -0.142201
v -3.874664 0.311650 0.217088
v -4.125336 0.311650 0.217088
v -3.917900 0.511166 0.142201
v -4.082100 0.511166 0.142201
v -4.250672 0.311650 -0.000000
v -3.749328 0.311650 -0.000000
v -4.164199 0.511166 -0.000000
v -3.835801 0.511166 -0.000000
vn -0.8108 0.3514 -0.4681
vn -0.0000 0.3514 -0.9362
vn 0.8108 0.3514 -0.4681
vn -0.8108 0.3514 0.4681
vn -0.0000 0.3514 0.9362
vn 0.8108 0.3514 0.4681
vt 0.272553 0.387564
vt 0.420751 0.241106
vt 0.272553 0.387564
vt 0.420778 0.241000
vt 0.369570 0.437243
vt 0.466588 0.341382
vt 0.369570 0.437243
vt 0.466663 0.341238
vt 0.272553 0.387564
vt 0.420751 0.241106
vt 0.272553 0.387564
vt 0.420778 0.241000
vt 0.369570 0.437243
vt 0.466588 0.341382
vt 0.369570 0.437243
vt 0.466663 0.341238
vt 0.420778 0.240999
vt 0.272498 0.387641
vt 0.466663 0.341238
vt 0.369476 0.437368
s 1
usemtl King.001
f 2/3/1 9/17/1 11/19/1 4/7/1
f 1/1/2 2/4/2 4/8/2 3/5/2
f 10/18/3 1/2/3 3/6/3 12/20/3
f 6/11/4 8/15/4 11/19/4 9/17/4
f 5/9/5 7/13/5 8/16/5 6/12/5
f 10/18/6 12/20/6 7/14/6 5/10/6
