# Blender 3.5.1
# www.blender.org
mtllib King.mtl
o King
v -4.019336 1.589786 0.021462
v -4.023993 1.719343 0.021462
v -4.019336 1.589786 -0.021462
v -4.023993 1.719343 -0.021462
v -3.980383 1.589786 0.021462
v -3.975725 1.719343 0.021462
v -3.980383 1.589786 -0.021462
v -3.975725 1.719343 -0.021462
v -4.019336 1.641577 0.021462
v -4.019336 1.677164 0.021462
v -4.019336 1.677164 -0.021462
v -4.019336 1.641577 -0.021462
v -3.980383 1.677164 -0.021462
v -3.980383 1.641577 -0.021462
v -3.980383 1.677164 0.021462
v -3.980383 1.641577 0.021462
v -4.054239 1.638511 0.021462
v -4.054239 1.680230 0.021462
v -4.054239 1.680230 -0.021462
v -4.054239 1.638511 -0.021462
v -3.945479 1.680230 -0.021462
v -3.945479 1.638511 -0.021462
v -3.945479 1.680230 0.021462
v -3.945479 1.638511 0.021462
vn -0.9940 -0.1098 -0.0000
vn -0.0000 -0.0000 -1.0000
vn 0.9940 -0.1098 -0.0000
vn -0.0000 -0.0000 1.0000
vn -0.0000 1.0000 -0.0000
vn 1.0000 -0.0000 -0.0000
vn -1.0000 -0.0000 -0.0000
vn 0.0875 -0.9962 -0.0000
vn -0.0875 -0.9962 -0.0000
vn 0.0875 0.9962 -0.0000
vn -0.0875 0.9962 -0.0000
vt 0.510905 0.726888
vt 0.302541 0.719255
vt 0.025134 0.726555
vt 0.510953 0.657853
vt 0.310164 0.650641
vt 0.233506 0.719206
vt 0.510862 0.789537
vt 0.302488 0.796884
vt 0.510815 0.858573
vt 0.025091 0.789203
vt 0.310017 0.865509
vt 0.233452 0.796836
vt 0.427608 0.726831
vt 0.039657 0.710469
vt 0.108557 0.545306
vt 0.370374 0.726791
vt 0.165791 0.545346
vt 0.234430 0.710722
vt 0.377997 0.658177
vt 0.165664 0.726652
vt 0.427656 0.657796
vt 0.108430 0.726612
vt 0.377860 0.858064
vt 0.165621 0.789300
vt 0.427518 0.858516
vt 0.108387 0.789259
vt 0.370330 0.789440
vt 0.234395 0.805442
vt 0.165497 0.970604
vt 0.427565 0.789481
vt 0.039622 0.805189
vt 0.108263 0.970565
vt 0.034764 0.651113
vt 0.103586 0.601437
vt 0.170683 0.601485
vt 0.239400 0.651298
vt 0.170634 0.670519
vt 0.103537 0.670473
vt 0.170514 0.845438
vt 0.103417 0.845392
vt 0.239288 0.864797
vt 0.170467 0.914471
vt 0.034651 0.864614
vt 0.103370 0.914427
s 1
usemtl King.001
f 10/16/1 2/2/1 4/5/1 11/19/1
f 11/20/2 4/6/2 8/12/2 13/24/2
f 13/23/3 8/11/3 6/8/3 15/27/3
f 15/27/4 6/8/4 2/2/4 10/16/4
f 8/12/5 4/6/5 2/2/5 6/8/5
f 5/7/4 16/30/4 9/13/4 1/1/4
f 16/30/4 15/27/4 10/16/4 9/13/4
f 7/9/6 14/25/6 16/30/6 5/7/6
f 11/20/2 12/22/2 20/38/2 19/37/2
f 3/3/2 12/22/2 14/26/2 7/10/2
f 12/22/2 11/20/2 13/24/2 14/26/2
f 1/1/7 9/13/7 12/21/7 3/4/7
f 12/22/8 9/14/8 17/33/8 20/38/8
f 22/40/6 21/39/6 23/42/6 24/44/6
f 17/34/7 18/35/7 19/37/7 20/38/7
f 9/15/4 10/17/4 18/35/4 17/34/4
f 16/31/9 14/26/9 22/40/9 24/43/9
f 10/18/10 11/20/10 19/37/10 18/36/10
f 13/24/11 15/28/11 23/41/11 21/39/11
f 15/29/4 16/32/4 24/44/4 23/42/4
f 14/26/2 13/24/2 21/39/2 22/40/2
