# Blender 3.5.1
# www.blender.org
mtllib King2.mtl
o King.002
v -3.820596 0.231832 -0.310737
v -4.179404 0.231832 -0.310737
v -3.835415 0.283491 -0.285070
v -4.164585 0.283491 -0.285070
v -3.874664 0.311650 -0.217088
v -4.125336 0.311650 -0.217088
v -3.834116 0.180315 -0.287319
v -4.165884 0.180315 -0.287319
v -3.820596 0.231832 0.310737
v -4.179404 0.231832 0.310737
v -3.835415 0.283491 0.285070
v -4.164585 0.283491 0.285070
v -3.874664 0.311650 0.217088
v -4.125336 0.311650 0.217088
v -3.834116 0.180315 0.287319
v -4.165884 0.180315 0.287319
v -4.358808 0.231832 -0.000000
v -3.641192 0.231832 -0.000000
v -4.329170 0.283491 -0.000000
v -3.670830 0.283491 -0.000000
v -4.250672 0.311650 -0.000000
v -3.749328 0.311650 -0.000000
v -3.668232 0.180315 -0.000000
v -4.331768 0.180315 -0.000000
vn -0.7884 -0.4138 -0.4552
vn -0.0000 -0.4138 -0.9104
vn 0.7884 -0.4138 -0.4552
vn -0.7756 0.4450 -0.4478
vn -0.0000 0.4450 -0.8956
vn 0.7756 0.4450 -0.4478
vn -0.3314 0.9239 -0.1913
vn -0.0000 0.9239 -0.3827
vn 0.3314 0.9239 -0.1913
vn -0.7884 -0.4138 0.4552
vn -0.0000 -0.4138 0.9104
vn 0.7884 -0.4138 0.4552
vn -0.7756 0.4450 0.4478
vn -0.0000 0.4450 0.8956
vn 0.7756 0.4450 0.4478
vn -0.3314 0.9239 0.1913
vn -0.0000 0.9239 0.3827
vn 0.3314 0.9239 0.1913
vt 0.196571 0.373005
vt 0.408744 0.163301
vt 0.196571 0.373005
vt 0.408738 0.163215
vt 0.224674 0.384631
vt 0.419309 0.192266
vt 0.224674 0.384631
vt 0.419316 0.192169
vt 0.272553 0.387564
vt 0.420751 0.241106
vt 0.272553 0.387564
vt 0.420778 0.241000
vt 0.185592 0.345196
vt 0.381786 0.151289
vt 0.185593 0.345195
vt 0.381770 0.151215
vt 0.196571 0.373005
vt 0.408744 0.163301
vt 0.196571 0.373005
vt 0.408738 0.163215
vt 0.224674 0.384631
vt 0.419309 0.192266
vt 0.224674 0.384631
vt 0.419316 0.192169
vt 0.272553 0.387564
vt 0.420751 0.241106
vt 0.272553 0.387564
vt 0.420778 0.241000
vt 0.185592 0.345196
vt 0.381786 0.151289
vt 0.185593 0.345195
vt 0.381770 0.151215
vt 0.408738 0.163214
vt 0.196536 0.373049
vt 0.419316 0.192169
vt 0.224629 0.384688
vt 0.420778 0.240999
vt 0.272498 0.387641
vt 0.185570 0.345229
vt 0.381771 0.151214
s 1
usemtl King.001
f 8/15/1 24/40/1 17/33/1 2/3/1
f 7/13/2 8/16/2 2/4/2 1/1/2
f 23/39/3 7/14/3 1/2/3 18/34/3
f 2/3/4 17/33/4 19/35/4 4/7/4
f 1/1/5 2/4/5 4/8/5 3/5/5
f 18/34/6 1/2/6 3/6/6 20/36/6
f 4/7/7 19/35/7 21/37/7 6/11/7
f 3/5/8 4/8/8 6/12/8 5/9/8
f 20/36/9 3/6/9 5/10/9 22/38/9
f 16/31/10 10/19/10 17/33/10 24/40/10
f 15/29/11 9/17/11 10/20/11 16/32/11
f 23/39/12 18/34/12 9/18/12 15/30/12
f 10/19/13 12/23/13 19/35/13 17/33/13
f 9/17/14 11/21/14 12/24/14 10/20/14
f 18/34/15 20/36/15 11/22/15 9/18/15
f 12/23/16 14/27/16 21/37/16 19/35/16
f 11/21/17 13/25/17 14/28/17 12/24/17
f 20/36/18 22/38/18 13/26/18 11/22/18
