# Blender 3.5.1
# www.blender.org
mtllib King5.mtl
o King.005
v -3.941677 1.038013 -0.101019
v -4.058323 1.038013 -0.101019
v -3.890495 1.106423 -0.189669
v -4.109505 1.106423 -0.189669
v -3.871191 1.065003 -0.223105
v -3.890677 1.038013 -0.189353
v -4.128809 1.065003 -0.223105
v -4.109323 1.038013 -0.189353
v -3.917562 1.115991 -0.142772
v -4.082428 1.115984 -0.142776
v -3.941677 1.038013 0.101019
v -4.058323 1.038013 0.101019
v -3.890495 1.106423 0.189668
v -4.109505 1.106423 0.189668
v -3.871191 1.065003 0.223105
v -3.890677 1.038013 0.189353
v -4.128809 1.065003 0.223105
v -4.109323 1.038013 0.189353
v -3.917562 1.115991 0.142772
v -4.082428 1.115984 0.142776
v -4.116647 1.038013 -0.000000
v -3.883353 1.038013 -0.000000
v -4.219010 1.106423 -0.000000
v -3.780990 1.106423 -0.000000
v -4.218646 1.038013 -0.000000
v -4.257619 1.065003 -0.000000
v -3.742381 1.065003 -0.000000
v -3.781354 1.038013 -0.000000
v -4.164606 1.116031 -0.000000
v -3.835132 1.115991 -0.000000
vn -0.0000 -1.0000 -0.0000
vn -0.0000 0.6281 -0.7781
vn 0.6739 0.6281 -0.3891
vn -0.6739 0.6281 -0.3891
vn 0.5409 -0.7810 -0.3123
vn -0.0000 -0.7810 -0.6245
vn -0.5409 -0.7810 -0.3123
vn -0.1730 0.9798 -0.0999
vn -0.0000 0.9798 -0.1998
vn 0.1732 0.9798 -0.1000
vn -0.0000 0.6281 0.7781
vn 0.6739 0.6281 0.3891
vn -0.6739 0.6281 0.3891
vn 0.5409 -0.7810 0.3123
vn -0.0000 -0.7810 0.6245
vn -0.5409 -0.7810 0.3123
vn -0.1730 0.9798 0.0999
vn -0.0000 0.9798 0.1998
vn 0.1732 0.9798 0.1000
vt 0.560809 0.609221
vt 0.629598 0.541267
vt 0.629783 0.541018
vt 0.560808 0.609221
vt 0.592498 0.704142
vt 0.721785 0.576380
vt 0.592497 0.704142
vt 0.722001 0.576088
vt 0.715365 0.546361
vt 0.563236 0.696705
vt 0.689359 0.542542
vt 0.560269 0.670110
vt 0.715569 0.546078
vt 0.563235 0.696706
vt 0.689557 0.542270
vt 0.560268 0.670111
vt 0.624550 0.705151
vt 0.721804 0.609053
vt 0.624551 0.705149
vt 0.722036 0.608754
vt 0.560809 0.609221
vt 0.629598 0.541267
vt 0.629783 0.541018
vt 0.560808 0.609221
vt 0.592498 0.704142
vt 0.721785 0.576380
vt 0.592497 0.704142
vt 0.722001 0.576088
vt 0.715365 0.546361
vt 0.563236 0.696705
vt 0.689359 0.542542
vt 0.560269 0.670110
vt 0.715569 0.546078
vt 0.563235 0.696706
vt 0.689557 0.542270
vt 0.560268 0.670111
vt 0.624550 0.705151
vt 0.721804 0.609053
vt 0.624551 0.705149
vt 0.722036 0.608754
vt 0.629783 0.541019
vt 0.560610 0.609455
vt 0.722000 0.576090
vt 0.592256 0.704406
vt 0.689556 0.542271
vt 0.715568 0.546079
vt 0.563002 0.696957
vt 0.560046 0.670356
vt 0.722037 0.608908
vt 0.624302 0.705424
s 1
usemtl King.001
f 2/3/1 8/15/1 6/12/1 1/1/1
f 7/13/2 4/8/2 3/5/2 5/10/2
f 5/9/3 3/6/3 24/44/3 27/47/3
f 21/41/1 25/45/1 8/16/1 2/4/1
f 1/2/1 6/11/1 28/48/1 22/42/1
f 26/46/4 23/43/4 4/7/4 7/14/4
f 6/11/5 5/9/5 27/47/5 28/48/5
f 8/15/6 7/13/6 5/10/6 6/12/6
f 25/45/7 26/46/7 7/14/7 8/16/7
f 23/43/8 29/49/8 10/19/8 4/7/8
f 4/8/9 10/20/9 9/17/9 3/5/9
f 3/6/10 9/18/10 30/50/10 24/44/10
f 12/23/1 11/21/1 16/32/1 18/35/1
f 17/33/11 15/30/11 13/25/11 14/28/11
f 15/29/12 27/47/12 24/44/12 13/26/12
f 21/41/1 12/24/1 18/36/1 25/45/1
f 11/22/1 22/42/1 28/48/1 16/31/1
f 26/46/13 17/34/13 14/27/13 23/43/13
f 16/31/14 28/48/14 27/47/14 15/29/14
f 18/35/15 16/32/15 15/30/15 17/33/15
f 25/45/16 18/36/16 17/34/16 26/46/16
f 23/43/17 14/27/17 20/39/17 29/49/17
f 14/28/18 13/25/18 19/37/18 20/40/18
f 13/26/19 24/44/19 30/50/19 19/38/19
