# Blender 3.5.1
# www.blender.org
mtllib BishopHead.mtl
o BishopHead
v -1.988315 1.388226 0.020233
v -1.894665 1.171507 0.182439
v -1.878371 1.060030 0.210662
v -1.894665 0.948553 0.182439
v -1.939183 0.901659 0.105331
v -2.011678 1.388226 0.020233
v -2.105328 1.171507 0.182439
v -2.121622 1.060030 0.210662
v -2.105328 0.948553 0.182439
v -2.060809 0.901659 0.105331
v -2.121171 0.901742 -0.000000
v -2.023359 1.388226 -0.000000
v -2.210659 1.171507 -0.000000
v -2.243248 1.060030 -0.000000
v -2.210659 0.948553 -0.000000
v -1.976634 1.388226 -0.000000
v -1.789334 1.171507 -0.000000
v -1.756745 1.060030 -0.000000
v -1.789334 0.948553 -0.000000
v -1.878371 0.901659 -0.000000
v -1.988315 1.388226 -0.020233
v -1.894665 1.171507 -0.182439
v -1.878371 1.060030 -0.210662
v -1.894665 0.948553 -0.182439
v -1.939183 0.901659 -0.105331
v -2.011678 1.388226 -0.020233
v -2.105328 1.171507 -0.182439
v -2.121622 1.060030 -0.210662
v -2.105328 0.948553 -0.182439
v -2.060809 0.901659 -0.105331
v -1.941490 1.279866 0.101336
v -2.058503 1.279866 0.101336
v -1.918078 1.225687 0.141887
v -1.842000 1.171507 0.091219
v -2.081915 1.225687 0.141887
v -2.157993 1.171507 0.091219
v -1.799372 1.115769 -0.045610
v -2.200621 1.115769 -0.045610
v -2.212842 1.060030 -0.052666
v -1.787151 1.060030 -0.052666
vn 0.8395 -0.2454 0.4847
vn 0.6933 0.5992 0.4003
vn 0.4500 -0.8544 0.2598
vn 0.8395 0.2454 0.4847
vn -0.0000 -0.2454 0.9694
vn -0.0000 0.5992 0.8006
vn -0.0000 -0.8544 0.5196
vn -0.0000 0.2454 0.9694
vn -0.8395 -0.2454 0.4847
vn -0.6933 0.5992 0.4003
vn -0.4493 -0.8552 0.2584
vn -0.8395 0.2454 0.4847
vn 0.8395 -0.2454 -0.4847
vn 0.6933 0.5992 -0.4003
vn 0.4500 -0.8544 -0.2598
vn -0.0000 -0.2454 -0.9694
vn -0.0000 0.5992 -0.8006
vn -0.0000 -0.8544 -0.5196
vn -0.0000 0.2454 -0.9694
vn -0.8395 -0.2454 -0.4847
vn -0.6933 0.5992 -0.4003
vn -0.4493 -0.8552 -0.2584
vn -0.0000 -0.6830 0.7304
vn -0.0000 -0.6333 0.7739
vn -0.0000 -0.1256 0.9921
vn -0.0000 0.6830 -0.7304
vn 0.8395 0.2454 -0.4847
vn -0.8395 0.2454 -0.4847
vn -0.0000 0.6333 -0.7739
vn -0.0000 1.0000 -0.0000
vt 0.050021 0.374724
vt 0.278698 0.526886
vt 0.725151 0.243099
vt 0.632415 0.780940
vt 0.634406 0.255892
vt 0.534548 0.767072
vt 0.544150 0.242882
vt 0.436681 0.780939
vt 0.473719 0.208145
vt 0.359874 0.818827
vt 0.301457 0.507681
vt 0.050022 0.374724
vt 0.632415 0.960226
vt 0.725151 0.243099
vt 0.534548 0.974094
vt 0.634406 0.255892
vt 0.436680 0.960226
vt 0.544150 0.242882
vt 0.359874 0.922338
vt 0.473719 0.208145
vt 0.473376 0.112442
vt 0.962874 0.313803
vt 0.027119 0.382648
vt 0.519210 0.368593
vt 0.027119 0.679775
vt 0.049278 0.868160
vt 0.720180 0.289855
vt 0.634864 0.064905
vt 0.028065 0.750429
vt 0.806268 0.274092
vt 0.544546 0.077482
vt 0.893345 0.282866
vt 0.027119 0.382648
vt 0.519210 0.368593
vt 0.027119 0.679775
vt 0.323525 0.868161
vt 0.720180 0.289855
vt 0.634864 0.064905
vt 0.344738 0.750429
vt 0.806267 0.274092
vt 0.544546 0.077482
vt 0.893345 0.282866
vt 0.473376 0.112442
vt 0.962647 0.313642
vt 0.519920 0.386183
vt 0.685479 0.024534
vt 0.838899 0.042062
vt 0.726582 0.448468
vt 0.898602 0.060927
vt 0.813659 0.457243
vt 0.899747 0.441479
vt 0.950713 0.095637
vt 0.966344 0.405218
vt 0.984218 0.138303
vt 0.680037 0.035892
vt 0.519920 0.386183
vt 0.789827 0.144480
vt 0.726582 0.448468
vt 0.841938 0.179189
vt 0.813659 0.457243
vt 0.901641 0.198054
vt 0.899747 0.441479
vt 0.955886 0.197434
vt 0.966344 0.405218
vt 0.141827 0.491528
vt 0.344343 0.697232
vt 0.224484 0.964731
vt 0.458334 0.601044
vt 0.141827 0.491528
vt 0.148319 0.964731
vt 0.778285 0.224717
vt 0.690010 0.800865
vt 0.239724 0.608384
vt 0.724922 0.160615
vt 0.289244 0.656669
vt 0.690010 0.940300
vt 0.778285 0.224717
vt 0.133079 0.608384
vt 0.724922 0.160615
vt 0.083559 0.656669
vt 0.316992 0.821281
vt 0.764824 0.321627
vt 0.055812 0.821281
vt 0.764824 0.321627
vt 0.047857 0.784710
vt 0.808115 0.319879
vt 0.324946 0.784710
vt 0.808115 0.319880
s 1
usemtl Bishop.001
f 19/41/1 18/38/1 3/5/1 4/7/1
f 17/35/2 16/33/2 1/1/2 31/65/2
f 20/43/3 19/41/3 4/7/3 5/9/3
f 18/38/4 34/74/4 2/3/4 3/5/4
f 4/8/5 3/6/5 8/15/5 9/17/5
f 31/66/6 1/2/6 6/11/6 32/68/6
f 5/10/7 4/8/7 9/17/7 10/19/7
f 3/6/8 2/4/8 7/13/8 8/15/8
f 9/18/9 8/16/9 14/28/9 15/31/9
f 32/69/10 6/12/10 12/23/10 13/25/10
f 10/20/11 9/18/11 15/31/11 11/21/11
f 8/16/12 7/14/12 36/79/12 14/28/12
f 19/42/13 24/51/13 23/50/13
f 17/37/14 22/48/14 21/45/14 16/34/14
f 20/44/15 25/53/15 24/51/15 19/42/15
f 24/52/16 29/61/16 28/59/16 23/49/16
f 22/47/17 27/57/17 26/55/17 21/46/17
f 25/54/18 30/63/18 29/61/18 24/52/18
f 23/49/19 28/59/19 27/57/19 22/47/19
f 29/62/20 15/32/20 28/60/20
f 27/58/21 13/27/21 12/24/21 26/56/21
f 30/64/22 11/22/22 15/32/22 29/62/22
f 34/74/2 33/71/2 2/3/2
f 2/4/6 33/72/6 35/76/6 7/13/6
f 7/14/10 35/77/10 36/79/10
f 17/36/23 31/67/23 32/70/23 13/26/23
f 38/83/24 37/81/24 17/36/24 13/26/24
f 37/81/25 38/83/25 39/85/25 40/87/25
f 34/75/26 36/80/26 35/78/26 33/73/26
f 17/37/27 37/82/27 22/48/27
f 38/84/28 13/27/28 27/58/28
f 18/39/29 14/29/29 36/80/29 34/75/29
f 39/85/30 14/29/30 18/39/30 40/87/30
f 37/82/27 40/88/27 23/50/27 22/48/27
f 23/50/13 40/88/13 18/40/13 19/42/13
f 28/60/20 15/32/20 14/30/20 39/86/20
f 27/58/28 28/60/28 39/86/28 38/84/28
