# Blender 3.5.1
# www.blender.org
mtllib Rook6.mtl
o Rook.006
v -0.270391 1.258713 -0.085438
v -0.192525 1.258713 -0.040481
v -0.270391 1.315554 -0.085438
v -0.192525 1.315554 -0.040481
v -0.319719 1.258713 -0.000000
v -0.215897 1.258713 -0.000000
v -0.319719 1.315554 -0.000000
v -0.215897 1.315554 -0.000000
v -0.270391 1.258713 0.085437
v -0.192525 1.258713 0.040481
v -0.270391 1.315554 0.085437
v -0.192525 1.315554 0.040481
vn -0.0000 1.0000 -0.0000
vn 0.8660 -0.0000 0.5000
vn 0.5000 -0.0000 -0.8660
vn -0.8660 -0.0000 -0.5000
vn 0.8660 -0.0000 -0.5000
vn 0.5000 -0.0000 0.8660
vn -0.8660 -0.0000 0.5000
vt 0.346396 0.771174
vt 0.721669 0.878665
vt 0.875522 0.139202
vt 0.238021 0.839626
vt 0.389670 0.839686
vt 0.740069 0.903999
vt 0.875522 0.018634
vt 0.281295 0.908138
vt 0.765640 0.846728
vt 0.974673 0.139202
vt 0.464776 0.958599
vt 0.784040 0.872063
vt 0.316881 0.964480
vt 0.974673 0.018634
vt 0.346396 0.771174
vt 0.721669 0.878665
vt 0.875522 0.139202
vt 0.238021 0.839626
vt 0.389670 0.839686
vt 0.740069 0.903999
vt 0.875522 0.018634
vt 0.281295 0.908138
s 1
usemtl Rook
f 3/5/1 7/11/1 8/13/1 4/8/1
f 6/10/2 2/3/2 4/7/2 8/14/2
f 2/4/3 1/1/3 3/5/3 4/8/3
f 1/2/4 5/9/4 7/12/4 3/6/4
f 11/19/1 12/22/1 8/13/1 7/11/1
f 6/10/5 8/14/5 12/21/5 10/17/5
f 10/18/6 12/22/6 11/19/6 9/15/6
f 9/16/7 11/20/7 7/12/7 5/9/7
