# Blender 3.5.1
# www.blender.org
mtllib Rook3.mtl
o Rook.003
v 0.128106 0.318537 -0.221886
v -0.128106 0.318537 -0.221886
v -0.108225 0.854609 -0.187451
v 0.108225 0.854609 -0.187451
v -0.256211 0.318537 -0.000000
v 0.256211 0.318537 -0.000000
v 0.128106 0.318537 0.221886
v -0.128106 0.318537 0.221886
v -0.216449 0.854608 -0.000000
v 0.216449 0.854609 -0.000000
v -0.108225 0.854609 0.187451
v 0.108225 0.854609 0.187451
vn 0.8642 0.0641 -0.4990
vn -0.0000 0.0641 -0.9979
vn -0.8642 0.0641 -0.4990
vn 0.8642 0.0641 0.4990
vn -0.0000 0.0641 0.9979
vn -0.8642 0.0641 0.4990
vt 0.418896 0.399085
vt 0.304701 0.482025
vt 0.418896 0.399085
vt 0.304702 0.482025
vt 0.583929 0.644943
vt 0.487456 0.715011
vt 0.583929 0.644943
vt 0.487456 0.715012
vt 0.418897 0.399085
vt 0.304702 0.482025
vt 0.418896 0.399085
vt 0.304701 0.482025
vt 0.418896 0.399085
vt 0.304702 0.482025
vt 0.583929 0.644943
vt 0.487456 0.715012
vt 0.583929 0.644943
vt 0.487456 0.715011
vt 0.583929 0.644943
vt 0.487456 0.715012
s 1
usemtl Rook
f 1/1/1 4/7/1 10/16/1 6/10/1
f 2/3/2 3/5/2 4/8/2 1/2/2
f 5/9/3 9/15/3 3/6/3 2/4/3
f 7/11/4 6/10/4 10/16/4 12/19/4
f 8/13/5 7/12/5 12/20/5 11/17/5
f 5/9/6 8/14/6 11/18/6 9/15/6
