# Blender 3.5.1
# www.blender.org
mtllib Rook4.mtl
o Rook.004
v -0.108225 0.969821 -0.187451
v 0.108225 0.969821 -0.187451
v -0.108225 0.854609 -0.187451
v 0.108225 0.854609 -0.187451
v -0.137902 0.912215 -0.238853
v 0.137902 0.912215 -0.238853
v -0.108225 0.969821 0.187451
v 0.108225 0.969821 0.187451
v 0.216449 0.969821 -0.000000
v -0.216449 0.969821 -0.000000
v -0.216449 0.854608 -0.000000
v 0.216449 0.854609 -0.000000
v -0.108225 0.854609 0.187451
v 0.108225 0.854609 0.187451
v 0.275804 0.912215 -0.000000
v -0.275804 0.912215 -0.000000
v -0.137902 0.912215 0.238853
v 0.137902 0.912215 0.238853
vn -0.6462 0.6658 -0.3731
vn -0.0000 0.6658 -0.7461
vn 0.6462 0.6658 -0.3731
vn 0.6462 -0.6658 -0.3731
vn -0.0000 -0.6658 -0.7461
vn -0.6462 -0.6658 -0.3731
vn -0.6462 0.6658 0.3731
vn -0.0000 0.6658 0.7461
vn 0.6462 0.6658 0.3731
vn 0.6462 -0.6658 0.3731
vn -0.0000 -0.6658 0.7461
vn -0.6462 -0.6658 0.3731
vt 0.537442 0.783834
vt 0.633915 0.713766
vt 0.537442 0.783834
vt 0.633914 0.713765
vt 0.583929 0.644943
vt 0.487456 0.715011
vt 0.583929 0.644943
vt 0.487456 0.715012
vt 0.622149 0.669747
vt 0.499222 0.759030
vt 0.622149 0.669747
vt 0.499222 0.759030
vt 0.537442 0.783834
vt 0.633915 0.713766
vt 0.537442 0.783834
vt 0.633914 0.713765
vt 0.537442 0.783834
vt 0.633915 0.713765
vt 0.583929 0.644943
vt 0.487456 0.715012
vt 0.583929 0.644943
vt 0.487456 0.715011
vt 0.583929 0.644943
vt 0.487456 0.715012
vt 0.499222 0.759030
vt 0.622149 0.669747
vt 0.622149 0.669747
vt 0.499222 0.759030
vt 0.622149 0.669747
vt 0.499222 0.759030
s 1
usemtl Rook
f 16/26/1 10/18/1 1/1/1 5/10/1
f 5/9/2 1/2/2 2/3/2 6/12/2
f 6/11/3 2/4/3 9/17/3 15/25/3
f 4/7/4 6/11/4 15/25/4 12/20/4
f 3/5/5 5/9/5 6/12/5 4/8/5
f 11/19/6 16/26/6 5/10/6 3/6/6
f 16/26/7 17/28/7 7/13/7 10/18/7
f 17/27/8 18/30/8 8/15/8 7/14/8
f 18/29/9 15/25/9 9/17/9 8/16/9
f 14/23/10 12/20/10 15/25/10 18/29/10
f 13/21/11 14/24/11 18/30/11 17/27/11
f 11/19/12 13/22/12 17/28/12 16/26/12
