# Blender 3.5.1
# www.blender.org
mtllib Rook9.mtl
o Rook.009
v 0.270391 1.258713 -0.085438
v 0.192525 1.258713 -0.040481
v 0.192525 1.315554 -0.040481
v 0.270391 1.315554 -0.085438
v 0.319719 1.258713 -0.000000
v 0.215896 1.258713 -0.000000
v 0.215896 1.315554 -0.000000
v 0.319719 1.315554 -0.000000
v 0.270391 1.258713 0.085437
v 0.192525 1.258713 0.040481
v 0.192525 1.315554 0.040481
v 0.270391 1.315554 0.085437
vn 0.8660 -0.0000 -0.5000
vn -0.0000 1.0000 -0.0000
vn -0.8660 -0.0000 0.5000
vn -0.5000 -0.0000 -0.8660
vn 0.8660 -0.0000 0.5000
vn -0.8660 -0.0000 -0.5000
vn -0.5000 -0.0000 0.8660
vt 0.667111 0.918291
vt 0.253205 0.623630
vt 0.615874 0.139201
vt 0.144830 0.692081
vt 0.615874 0.018633
vt 0.101557 0.623569
vt 0.685511 0.943625
vt 0.209932 0.555118
vt 0.623140 0.950227
vt 0.516724 0.139201
vt 0.065970 0.567227
vt 0.516724 0.018633
vt 0.641540 0.975561
vt 0.134825 0.436205
vt 0.667111 0.918291
vt 0.253205 0.623630
vt 0.615874 0.139201
vt 0.144830 0.692081
vt 0.615874 0.018633
vt 0.101557 0.623569
vt 0.685511 0.943625
vt 0.209932 0.555118
s 1
usemtl Rook
f 5/9/1 1/1/1 4/7/1 8/13/1
f 8/14/2 4/8/2 3/6/2 7/11/2
f 2/3/3 6/10/3 7/12/3 3/5/3
f 1/2/4 2/4/4 3/6/4 4/8/4
f 5/9/5 8/13/5 12/21/5 9/15/5
f 8/14/2 7/11/2 11/20/2 12/22/2
f 10/17/6 11/19/6 7/12/6 6/10/6
f 9/16/7 12/22/7 11/20/7 10/18/7
