# Blender 3.5.1
# www.blender.org
mtllib Rook5.mtl
o Rook.005
v -0.159859 1.258713 -0.276885
v -0.107948 1.258713 -0.186972
v -0.107948 1.315554 -0.186972
v -0.159859 1.315554 -0.276885
v -0.061205 1.258713 -0.276885
v -0.209187 1.258713 -0.191447
v -0.061205 1.258713 -0.186972
v -0.131320 1.258713 -0.146491
v -0.131320 1.315554 -0.146491
v -0.209187 1.315554 -0.191447
v -0.061205 1.315554 -0.276885
v -0.061205 1.315554 -0.186972
vn 0.8660 -0.0000 0.5000
vn -0.8660 -0.0000 -0.5000
vn -0.5000 -0.0000 0.8660
vn -0.0000 1.0000 -0.0000
vn -0.0000 -0.0000 -1.0000
vn 1.0000 -0.0000 -0.0000
vn -0.0000 -0.0000 1.0000
vt 0.623140 0.950227
vt 0.765640 0.846728
vt 0.516724 0.139201
vt 0.974672 0.139201
vt 0.516724 0.018634
vt 0.316881 0.964480
vt 0.065970 0.567227
vt 0.974672 0.018633
vt 0.641540 0.975561
vt 0.464777 0.958599
vt 0.134825 0.436205
vt 0.784040 0.872062
vt 0.721669 0.878664
vt 0.346396 0.771174
vt 0.667111 0.918291
vt 0.253205 0.623630
vt 0.238021 0.839626
vt 0.875522 0.139201
vt 0.615875 0.139201
vt 0.144830 0.692081
vt 0.615875 0.018634
vt 0.101557 0.623569
vt 0.685511 0.943625
vt 0.209932 0.555118
vt 0.740070 0.903999
vt 0.389670 0.839687
vt 0.281295 0.908138
vt 0.875522 0.018633
s 1
usemtl Rook
f 8/19/1 2/3/1 3/5/1 9/21/1
f 1/1/2 6/15/2 10/23/2 4/9/2
f 6/16/3 8/20/3 9/22/3 10/24/3
f 11/26/4 4/10/4 3/6/4 12/27/4
f 4/11/4 10/24/4 9/22/4 3/7/4
f 5/13/5 1/2/5 4/12/5 11/25/5
f 7/17/6 5/14/6 11/26/6 12/27/6
f 2/4/7 7/18/7 12/28/7 3/8/7
