# Blender 3.5.1
# www.blender.org
mtllib Rook10.mtl
o Rook.010
v 0.159859 1.258713 -0.276885
v 0.107948 1.258713 -0.186972
v 0.159859 1.315554 -0.276885
v 0.107948 1.315554 -0.186972
v 0.209187 1.258713 -0.191447
v 0.061205 1.258713 -0.276885
v 0.131320 1.258713 -0.146491
v 0.061205 1.258713 -0.186972
v 0.209187 1.315554 -0.191447
v 0.131320 1.315554 -0.146491
v 0.061205 1.315554 -0.186972
v 0.061205 1.315554 -0.276885
vn -0.8660 -0.0000 0.5000
vn -0.0000 1.0000 -0.0000
vn -1.0000 -0.0000 -0.0000
vn -0.0000 -0.0000 -1.0000
vn -0.0000 -0.0000 1.0000
vn 0.5000 -0.0000 0.8660
vn 0.8660 -0.0000 -0.5000
vt 0.623140 0.950227
vt 0.765640 0.846728
vt 0.974672 0.139201
vt 0.516724 0.139201
vt 0.134825 0.436205
vt 0.464777 0.958599
vt 0.641540 0.975561
vt 0.784041 0.872063
vt 0.974672 0.018633
vt 0.065970 0.567227
vt 0.316882 0.964480
vt 0.516724 0.018633
vt 0.346397 0.771174
vt 0.721669 0.878665
vt 0.253205 0.623630
vt 0.667111 0.918291
vt 0.875522 0.139201
vt 0.238022 0.839626
vt 0.144830 0.692081
vt 0.615874 0.139201
vt 0.389670 0.839687
vt 0.740070 0.903999
vt 0.875522 0.018633
vt 0.281295 0.908138
vt 0.101557 0.623569
vt 0.615874 0.018633
vt 0.209932 0.555118
vt 0.685511 0.943625
s 1
usemtl Rook
f 2/3/1 7/17/1 10/23/1 4/9/1
f 3/5/2 12/27/2 11/25/2 4/10/2
f 9/21/2 3/6/2 4/11/2 10/24/2
f 6/15/3 8/19/3 11/25/3 12/27/3
f 1/1/4 6/16/4 12/28/4 3/7/4
f 8/20/5 2/4/5 4/12/5 11/26/5
f 7/18/6 5/13/6 9/21/6 10/24/6
f 5/14/7 1/2/7 3/8/7 9/22/7
