# Blender 3.5.1
# www.blender.org
mtllib Queen9.mtl
o Queen.009
v -3.028919 1.667568 -0.050843
v -3.028919 1.600057 -0.050843
v -2.970452 1.667568 -0.050843
v -2.970452 1.600057 -0.050843
v -3.058152 1.667568 -0.000000
v -3.058152 1.600057 -0.000000
v -2.999686 1.566301 -0.000000
v -3.028919 1.667568 0.050843
v -3.028919 1.600057 0.050843
v -2.970452 1.667568 0.050843
v -2.970452 1.600057 0.050843
v -2.941219 1.667568 -0.000000
v -2.941219 1.600057 -0.000000
v -2.999686 1.701324 -0.000000
vn -0.4805 -0.8323 -0.2763
vn -0.8669 -0.0000 -0.4985
vn -0.4805 0.8323 -0.2763
vn -0.0000 -0.8331 -0.5531
vn -0.0000 -0.0000 -1.0000
vn -0.0000 0.8331 -0.5531
vn 0.4805 -0.8323 -0.2763
vn 0.8669 -0.0000 -0.4985
vn 0.4805 0.8323 -0.2763
vn -0.4805 -0.8323 0.2763
vn -0.8669 -0.0000 0.4985
vn -0.4805 0.8323 0.2763
vn -0.0000 -0.8331 0.5531
vn -0.0000 -0.0000 1.0000
vn -0.0000 0.8331 0.5531
vn 0.4805 -0.8323 0.2763
vn 0.8669 -0.0000 0.4985
vn 0.4805 0.8323 0.2763
vt 0.884568 0.435382
vt 0.800742 0.435382
vt 0.884568 0.507977
vt 0.800742 0.507977
vt 0.884568 0.362786
vt 0.800742 0.362786
vt 0.725182 0.399084
vt 0.725182 0.471680
vt 0.725182 0.544275
vt 0.884568 0.435382
vt 0.800742 0.435382
vt 0.884568 0.507977
vt 0.800742 0.507977
vt 0.884568 0.580573
vt 0.800742 0.580573
vt 0.960128 0.399084
vt 0.960128 0.471680
vt 0.960128 0.544275
s 1
usemtl Queen
f 7/7/1 6/6/1 2/2/1
f 6/6/2 5/5/2 1/1/2 2/2/2
f 5/5/3 14/16/3 1/1/3
f 7/8/4 2/2/4 4/4/4
f 2/2/5 1/1/5 3/3/5 4/4/5
f 1/1/6 14/17/6 3/3/6
f 7/9/7 4/4/7 13/15/7
f 4/4/8 3/3/8 12/14/8 13/15/8
f 3/3/9 14/18/9 12/14/9
f 7/7/10 9/11/10 6/6/10
f 6/6/11 9/11/11 8/10/11 5/5/11
f 5/5/12 8/10/12 14/16/12
f 7/8/13 11/13/13 9/11/13
f 9/11/14 11/13/14 10/12/14 8/10/14
f 8/10/15 10/12/15 14/17/15
f 7/9/16 13/15/16 11/13/16
f 11/13/17 13/15/17 12/14/17 10/12/17
f 10/12/18 12/14/18 14/18/18
