# Blender 3.5.1
# www.blender.org
mtllib Queen10.mtl
o Queen.010
v -3.163911 1.508742 -0.030899
v -2.944533 1.508545 -0.158022
v -3.055335 1.508673 -0.157933
v -2.835478 1.508688 -0.030989
v -2.890866 1.508678 -0.126938
v -3.090455 1.510549 -0.156781
v -2.909426 1.510628 -0.156723
v -3.108832 1.508690 -0.127027
v -3.163911 1.508742 0.030899
v -2.944533 1.508545 0.158022
v -3.055335 1.508673 0.157933
v -2.835478 1.508688 0.030988
v -2.890866 1.508678 0.126937
v -2.818876 1.510505 -0.000000
v -3.090455 1.510549 0.156781
v -2.909426 1.510628 0.156723
v -2.999668 1.585541 -0.000000
v -3.180328 1.510570 -0.000000
v -3.108832 1.508690 0.127026
vn 0.3710 0.8940 -0.2512
vn 0.0331 0.8940 -0.4468
vn -0.4040 0.8940 -0.1937
vn 0.4050 0.8935 -0.1939
vn 0.3794 0.8989 -0.2191
vn 0.0007 0.8991 -0.4378
vn -0.0364 0.8933 -0.4480
vn -0.3795 0.8992 -0.2179
vn -0.3711 0.8943 -0.2501
vn 0.3710 0.8940 0.2512
vn 0.0331 0.8940 0.4468
vn -0.4040 0.8940 0.1937
vn 0.4050 0.8935 0.1939
vn 0.3794 0.8989 0.2191
vn 0.0007 0.8991 0.4378
vn -0.0364 0.8933 0.4480
vn -0.3795 0.8992 0.2179
vn -0.3711 0.8943 0.2501
vt 0.314317 0.768356
vt 0.255158 0.891648
vt 0.314317 0.768356
vt 0.255158 0.891648
vt 0.314317 0.768356
vt 0.331852 0.729209
vt 0.236231 0.931092
vt 0.331770 0.729059
vt 0.236231 0.931092
vt 0.255158 0.891648
vt 0.314317 0.768356
vt 0.255158 0.891648
vt 0.314317 0.768356
vt 0.255158 0.891648
vt 0.314317 0.768356
vt 0.236231 0.931092
vt 0.331852 0.729209
vt 0.236231 0.931092
vt 0.331770 0.729059
vt 0.236231 0.931092
vt 0.479871 0.922855
vt 0.331852 0.729209
vt 0.255158 0.891648
s 1
usemtl Queen
f 14/16/1 4/4/1 17/21/1
f 6/6/2 17/21/2 3/3/2
f 6/7/3 8/10/3 17/21/3
f 17/21/4 5/5/4 7/8/4
f 5/5/5 17/21/5 4/4/5
f 3/3/6 17/21/6 2/2/6
f 2/2/7 17/21/7 7/9/7
f 17/21/8 8/10/8 1/1/8
f 1/1/9 18/22/9 17/21/9
f 14/16/10 17/21/10 12/14/10
f 15/17/11 11/13/11 17/21/11
f 15/18/12 17/21/12 19/23/12
f 17/21/13 16/19/13 13/15/13
f 13/15/14 12/14/14 17/21/14
f 11/13/15 10/12/15 17/21/15
f 10/12/16 16/20/16 17/21/16
f 17/21/17 9/11/17 19/23/17
f 9/11/18 17/21/18 18/22/18
