# Blender 3.5.1
# www.blender.org
mtllib Queen.mtl
o Queen
v -3.163911 1.508742 -0.030899
v -2.944533 1.508545 -0.158022
v -3.055335 1.508673 -0.157933
v -2.835478 1.508688 -0.030989
v -2.890866 1.508678 -0.126938
v -2.832859 1.483916 -0.156600
v -2.780899 1.483949 -0.066541
v -3.052111 1.483919 -0.223166
v -2.948156 1.484191 -0.222911
v -3.218743 1.484022 -0.066453
v -3.167074 1.483956 -0.156676
v -3.134213 1.525999 -0.137791
v -3.185883 1.526070 -0.047547
v -2.947987 1.526176 -0.185224
v -3.051965 1.525970 -0.185357
v -2.813468 1.526003 -0.047637
v -2.865494 1.526043 -0.137672
v -3.108832 1.508690 -0.127027
v -3.114462 1.443629 -0.198086
v -2.885706 1.443614 -0.198102
v -3.163911 1.508742 0.030899
v -2.944533 1.508545 0.158022
v -3.055335 1.508673 0.157933
v -2.835478 1.508688 0.030988
v -2.890866 1.508678 0.126937
v -2.832859 1.483916 0.156600
v -2.780899 1.483949 0.066541
v -3.052111 1.483919 0.223166
v -2.948156 1.484191 0.222911
v -3.218743 1.484022 0.066453
v -3.167074 1.483956 0.156676
v -3.134213 1.525999 0.137791
v -3.185883 1.526070 0.047547
v -2.947987 1.526176 0.185223
v -3.051965 1.525970 0.185357
v -2.813468 1.526003 0.047636
v -2.865494 1.526043 0.137672
v -3.108832 1.508690 0.127026
v -3.114462 1.443629 0.198086
v -3.228005 1.443723 -0.000000
v -2.771327 1.443605 -0.000000
v -2.885706 1.443614 0.198102
vn -0.0004 0.8425 0.5387
vn 0.7361 -0.5269 -0.4249
vn 0.7366 -0.5265 -0.4245
vn 0.7361 -0.5275 -0.4242
vn 0.0013 -0.5215 -0.8533
vn 0.0031 -0.5241 -0.8517
vn 0.0017 -0.5270 -0.8498
vn -0.0031 -0.5264 -0.8502
vn -0.7378 -0.5270 -0.4217
vn -0.7375 -0.5270 -0.4223
vn -0.7368 -0.5277 -0.4226
vn -0.7372 -0.5280 -0.4217
vn 0.6452 0.6671 -0.3725
vn -0.0002 0.6683 -0.7439
vn -0.6443 0.6696 -0.3695
vn -0.4635 0.8447 0.2678
vn 0.4644 0.8449 0.2654
vn -0.0004 0.8425 -0.5387
vn 0.7361 -0.5269 0.4249
vn 0.7358 -0.5270 0.4252
vn 0.7361 -0.5275 0.4242
vn 0.7366 -0.5265 0.4245
vn 0.0013 -0.5215 0.8532
vn -0.0031 -0.5264 0.8502
vn 0.0017 -0.5270 0.8498
vn 0.0030 -0.5241 0.8516
vn -0.7377 -0.5271 0.4218
vn -0.7372 -0.5280 0.4217
vn -0.7372 -0.5275 0.4222
vn 0.6452 0.6671 0.3725
vn -0.0002 0.6683 0.7439
vn -0.6443 0.6696 0.3695
vn -0.4635 0.8447 -0.2678
vn 0.4644 0.8449 -0.2654
vt 0.314317 0.768356
vt 0.255158 0.891648
vt 0.314317 0.768356
vt 0.255158 0.891648
vt 0.314317 0.768356
vt 0.937641 0.116390
vt 0.213572 0.724929
vt 0.937644 0.227833
vt 0.158053 0.840629
vt 0.937698 0.116318
vt 0.213572 0.724929
vt 0.937702 0.227762
vt 0.158053 0.840629
vt 0.937681 0.116920
vt 0.213572 0.724929
vt 0.937686 0.228363
vt 0.158053 0.840629
vt 0.221052 0.870769
vt 0.276572 0.755069
vt 0.221052 0.870769
vt 0.276572 0.755069
vt 0.221052 0.870769
vt 0.276572 0.755069
vt 0.255158 0.891648
vt 0.886549 0.049403
vt 0.886544 0.295010
vt 0.886512 0.049460
vt 0.886551 0.294754
vt 0.314317 0.768356
vt 0.255158 0.891648
vt 0.314317 0.768356
vt 0.255158 0.891648
vt 0.314317 0.768356
vt 0.937641 0.116390
vt 0.213572 0.724929
vt 0.937644 0.227833
vt 0.158053 0.840629
vt 0.937698 0.116318
vt 0.213572 0.724929
vt 0.937702 0.227762
vt 0.158053 0.840629
vt 0.937681 0.116920
vt 0.213572 0.724929
vt 0.937686 0.228363
vt 0.158053 0.840629
vt 0.221052 0.870769
vt 0.276572 0.755069
vt 0.221052 0.870769
vt 0.276572 0.755069
vt 0.221052 0.870769
vt 0.276572 0.755069
vt 0.255158 0.891648
vt 0.886549 0.049403
vt 0.886544 0.295010
vt 0.886563 0.050124
vt 0.886514 0.294809
vt 0.886512 0.049460
vt 0.886551 0.294754
s 1
usemtl Queen
f 14/20/1 15/21/1 3/3/1 2/2/1
f 41/56/2 20/27/3 6/6/4 7/8/2
f 20/28/5 19/25/6 8/10/7 9/12/8
f 19/26/9 40/55/10 10/14/11 11/16/12
f 6/7/13 17/23/13 16/22/13 7/9/13
f 14/20/14 9/13/14 8/11/14 15/21/14
f 10/15/15 13/19/15 12/18/15 11/17/15
f 16/22/16 17/23/16 5/5/16 4/4/16
f 12/18/17 13/19/17 1/1/17 18/24/17
f 34/48/18 22/30/18 23/31/18 35/49/18
f 41/56/19 27/36/20 26/34/21 42/57/22
f 42/58/23 29/40/24 28/38/25 39/53/26
f 39/54/27 31/44/28 30/42/29 40/55/29
f 26/35/30 27/37/30 36/50/30 37/51/30
f 34/48/31 35/49/31 28/39/31 29/41/31
f 30/43/32 31/45/32 32/46/32 33/47/32
f 36/50/33 24/32/33 25/33/33 37/51/33
f 32/46/34 38/52/34 21/29/34 33/47/34
