# Blender 3.5.1
# www.blender.org
mtllib Queen12.mtl
o Queen.012
v -3.268887 1.500313 0.000534
v -3.163911 1.508742 -0.030899
v -3.218743 1.484022 -0.066453
v -3.185883 1.526070 -0.047547
v -3.256104 1.518615 -0.073017
v -3.222852 1.561017 -0.053946
v -3.250729 1.563892 -0.000716
v -3.293943 1.522540 -0.000517
v -3.268887 1.500313 -0.000534
v -3.225626 1.541507 -0.000000
v -3.163911 1.508742 0.030899
v -3.180328 1.510570 -0.000000
v -3.218743 1.484022 0.066453
v -3.185883 1.526070 0.047547
v -3.256104 1.518615 0.073017
v -3.222852 1.561017 0.053946
v -3.250729 1.563892 0.000715
v -3.293943 1.522540 0.000516
v -3.228005 1.443723 -0.000000
vn 0.5368 0.8186 0.2042
vn -0.6423 0.6702 -0.3719
vn -0.6249 -0.7252 -0.2891
vn 0.6305 0.7190 0.2924
vn 0.3202 0.1685 -0.9322
vn -0.7366 -0.5283 -0.4223
vn -0.7368 -0.5278 -0.4225
vn -0.7365 -0.5280 -0.4229
vn 0.5368 0.8186 -0.2042
vn -0.6423 0.6702 0.3719
vn -0.6249 -0.7252 0.2891
vn 0.6305 0.7190 -0.2924
vn 0.3202 0.1685 0.9322
vn -0.7365 -0.5280 0.4229
vt 0.134610 0.595945
vt 0.957595 0.027629
vt 0.314317 0.768356
vt 0.119785 0.690844
vt 0.937681 0.116920
vt 0.276572 0.755069
vt 0.121100 0.710859
vt 0.164874 0.666030
vt 0.228457 0.713664
vt 0.259009 0.647179
vt 0.176729 0.584780
vt 0.134610 0.595945
vt 0.957595 0.027629
vt 0.287479 0.677172
vt 0.314317 0.768356
vt 0.331852 0.729209
vt 0.119785 0.690844
vt 0.937681 0.116920
vt 0.276572 0.755069
vt 0.121100 0.710859
vt 0.164874 0.666030
vt 0.228457 0.713664
vt 0.259009 0.647179
vt 0.176729 0.584780
vt 0.886563 0.050124
s 1
usemtl Queen
f 4/6/1 10/14/1 12/16/1 2/3/1
f 5/8/2 8/11/2 7/10/2 6/9/2
f 1/1/3 8/11/3 5/8/3 3/4/3
f 4/6/4 6/9/4 7/10/4 10/14/4
f 3/4/5 5/8/5 6/9/5 4/7/5
f 3/5/6 19/25/7 1/2/8
f 14/19/9 11/15/9 12/16/9 10/14/9
f 15/21/10 16/22/10 17/23/10 18/24/10
f 9/12/11 13/17/11 15/21/11 18/24/11
f 14/19/12 10/14/12 17/23/12 16/22/12
f 13/17/13 14/20/13 16/22/13 15/21/13
f 13/18/14 9/13/14 19/25/14
