# Blender 3.5.1
# www.blender.org
mtllib Queen4.mtl
o Queen.004
v -2.941677 1.038013 -0.101019
v -3.058323 1.038013 -0.101019
v -2.917900 0.511166 -0.142201
v -3.082100 0.511166 -0.142201
v -3.116647 1.038013 -0.000000
v -2.883353 1.038013 -0.000000
v -2.941677 1.038013 0.101019
v -3.058323 1.038013 0.101019
v -3.164199 0.511166 -0.000000
v -2.835801 0.511166 -0.000000
v -2.917900 0.511166 0.142201
v -3.082100 0.511166 0.142201
vn 0.8634 0.0779 -0.4985
vn -0.0000 0.0779 -0.9970
vn -0.8634 0.0779 -0.4985
vn 0.8634 0.0779 0.4985
vn -0.0000 0.0779 0.9970
vn -0.8634 0.0779 0.4985
vt 0.792319 0.704156
vt 0.692044 0.804603
vt 0.792594 0.703792
vt 0.692042 0.804604
vt 0.576143 0.432254
vt 0.434717 0.573951
vt 0.576257 0.432044
vt 0.434716 0.573951
vt 0.792592 0.703793
vt 0.691751 0.804948
vt 0.792319 0.704156
vt 0.692044 0.804603
vt 0.792594 0.703792
vt 0.692042 0.804604
vt 0.576257 0.432044
vt 0.434577 0.574134
vt 0.576143 0.432254
vt 0.434717 0.573951
vt 0.576257 0.432044
vt 0.434716 0.573951
s 1
usemtl Queen
f 10/16/1 3/5/1 1/1/1 6/10/1
f 3/6/2 4/7/2 2/3/2 1/2/2
f 4/8/3 9/15/3 5/9/3 2/4/3
f 10/16/4 6/10/4 7/11/4 11/17/4
f 11/18/5 7/12/5 8/13/5 12/19/5
f 12/20/6 8/14/6 5/9/6 9/15/6
