# Blender 3.5.1
# www.blender.org
mtllib Queen3.mtl
o Queen.003
v -2.874664 0.311650 -0.217088
v -3.125336 0.311650 -0.217088
v -2.917900 0.511166 -0.142201
v -3.082100 0.511166 -0.142201
v -3.250672 0.311650 -0.000000
v -2.749328 0.311650 -0.000000
v -2.874664 0.311650 0.217088
v -3.125336 0.311650 0.217088
v -3.164199 0.511166 -0.000000
v -2.835801 0.511166 -0.000000
v -2.917900 0.511166 0.142201
v -3.082100 0.511166 0.142201
vn -0.8108 0.3514 -0.4681
vn -0.0000 0.3514 -0.9362
vn 0.8108 0.3514 -0.4681
vn -0.8108 0.3514 0.4681
vn -0.0000 0.3514 0.9362
vn 0.8108 0.3514 0.4681
vt 0.301941 0.510017
vt 0.517977 0.293531
vt 0.301941 0.510017
vt 0.518021 0.293377
vt 0.434717 0.573951
vt 0.576143 0.432254
vt 0.434716 0.573951
vt 0.576257 0.432044
vt 0.518021 0.293377
vt 0.301858 0.510130
vt 0.301941 0.510017
vt 0.517977 0.293531
vt 0.301941 0.510017
vt 0.518021 0.293377
vt 0.576257 0.432044
vt 0.434577 0.574134
vt 0.434717 0.573951
vt 0.576143 0.432254
vt 0.434716 0.573951
vt 0.576257 0.432044
s 1
usemtl Queen
f 2/3/1 5/9/1 9/15/1 4/7/1
f 1/1/2 2/4/2 4/8/2 3/5/2
f 6/10/3 1/2/3 3/6/3 10/16/3
f 8/13/4 12/19/4 9/15/4 5/9/4
f 7/11/5 11/17/5 12/20/5 8/14/5
f 6/10/6 10/16/6 11/18/6 7/12/6
