# Blender 3.5.1
# www.blender.org
mtllib Queen2.mtl
o Queen.002
v -2.820596 0.231832 -0.310737
v -3.179404 0.231832 -0.310737
v -2.835415 0.283491 -0.285070
v -3.164585 0.283491 -0.285070
v -2.874664 0.311650 -0.217088
v -3.125336 0.311650 -0.217088
v -2.834116 0.180315 -0.287319
v -3.165884 0.180315 -0.287319
v -3.358808 0.231832 -0.000000
v -2.641192 0.231832 -0.000000
v -2.820596 0.231832 0.310737
v -3.179404 0.231832 0.310737
v -3.329170 0.283491 -0.000000
v -2.670830 0.283491 -0.000000
v -2.835415 0.283491 0.285070
v -3.164585 0.283491 0.285070
v -3.250672 0.311650 -0.000000
v -2.749328 0.311650 -0.000000
v -2.874664 0.311650 0.217088
v -3.125336 0.311650 0.217088
v -2.668232 0.180315 -0.000000
v -2.834116 0.180315 0.287319
v -3.165884 0.180315 0.287319
v -3.331768 0.180315 -0.000000
vn -0.7884 -0.4138 -0.4552
vn -0.0000 -0.4138 -0.9104
vn 0.7884 -0.4138 -0.4552
vn -0.7756 0.4450 -0.4478
vn -0.0000 0.4450 -0.8956
vn 0.7756 0.4450 -0.4478
vn -0.3314 0.9239 -0.1913
vn -0.0000 0.9239 -0.3827
vn 0.3314 0.9239 -0.1913
vn -0.7884 -0.4138 0.4552
vn -0.0000 -0.4138 0.9104
vn 0.7884 -0.4138 0.4552
vn -0.7756 0.4450 0.4478
vn -0.0000 0.4450 0.8956
vn 0.7756 0.4450 0.4478
vn -0.3314 0.9239 0.1913
vn -0.0000 0.9239 0.3827
vn 0.3314 0.9239 0.1913
vt 0.196506 0.494347
vt 0.505803 0.184375
vt 0.196505 0.494347
vt 0.505799 0.184252
vt 0.235132 0.508961
vt 0.518861 0.224617
vt 0.235131 0.508960
vt 0.518877 0.224479
vt 0.301941 0.510017
vt 0.517977 0.293531
vt 0.301941 0.510017
vt 0.518021 0.293377
vt 0.182799 0.455763
vt 0.468802 0.169141
vt 0.182798 0.455763
vt 0.468784 0.169037
vt 0.505799 0.184251
vt 0.196454 0.494412
vt 0.196506 0.494347
vt 0.505803 0.184375
vt 0.196505 0.494347
vt 0.505799 0.184252
vt 0.518877 0.224479
vt 0.235065 0.509045
vt 0.235132 0.508961
vt 0.518861 0.224617
vt 0.235131 0.508960
vt 0.518877 0.224479
vt 0.518021 0.293377
vt 0.301858 0.510130
vt 0.301941 0.510017
vt 0.517977 0.293531
vt 0.301941 0.510017
vt 0.518021 0.293377
vt 0.182766 0.455813
vt 0.182799 0.455763
vt 0.468802 0.169141
vt 0.182798 0.455763
vt 0.468784 0.169037
vt 0.468784 0.169036
s 1
usemtl Queen
f 8/15/1 24/40/1 9/17/1 2/3/1
f 7/13/2 8/16/2 2/4/2 1/1/2
f 21/35/3 7/14/3 1/2/3 10/18/3
f 2/3/4 9/17/4 13/23/4 4/7/4
f 1/1/5 2/4/5 4/8/5 3/5/5
f 10/18/6 1/2/6 3/6/6 14/24/6
f 4/7/7 13/23/7 17/29/7 6/11/7
f 3/5/8 4/8/8 6/12/8 5/9/8
f 14/24/9 3/6/9 5/10/9 18/30/9
f 23/38/10 12/21/10 9/17/10 24/40/10
f 22/36/11 11/19/11 12/22/11 23/39/11
f 21/35/12 10/18/12 11/20/12 22/37/12
f 12/21/13 16/27/13 13/23/13 9/17/13
f 11/19/14 15/25/14 16/28/14 12/22/14
f 10/18/15 14/24/15 15/26/15 11/20/15
f 16/27/16 20/33/16 17/29/16 13/23/16
f 15/25/17 19/31/17 20/34/17 16/28/17
f 14/24/18 18/30/18 19/32/18 15/26/18
