# Blender 3.5.1
# www.blender.org
mtllib Queen15.mtl
o Queen.015
v -2.730418 1.500228 0.000548
v -2.835478 1.508688 -0.030989
v -2.780899 1.483949 -0.066541
v -2.813468 1.526003 -0.047637
v -2.743474 1.518450 -0.073266
v -2.776448 1.560857 -0.054189
v -2.748258 1.563706 -0.000556
v -2.730418 1.500228 -0.000548
v -2.773464 1.541427 -0.000000
v -2.835478 1.508688 0.030988
v -2.818876 1.510505 -0.000000
v -2.780899 1.483949 0.066541
v -2.813468 1.526003 0.047636
v -2.743474 1.518450 0.073266
v -2.776448 1.560857 0.054189
v -2.705271 1.522337 -0.000000
v -2.748258 1.563706 0.000555
v -2.771327 1.443605 -0.000000
vn -0.5353 0.8192 0.2058
vn 0.6449 0.6672 -0.3728
vn 0.6234 -0.7263 -0.2896
vn -0.3229 0.1683 -0.9314
vn -0.6283 0.7207 0.2930
vn 0.7355 -0.5273 -0.4255
vn -0.5353 0.8192 -0.2058
vn 0.6449 0.6672 0.3728
vn 0.6234 -0.7263 0.2896
vn -0.3229 0.1683 0.9314
vn -0.6283 0.7207 -0.2930
vn 0.7356 -0.5275 0.4251
vn 0.7355 -0.5273 0.4255
vt 0.036922 0.858709
vt 0.957538 0.317434
vt 0.255158 0.891648
vt 0.098381 0.792381
vt 0.937644 0.227833
vt 0.128403 0.794670
vt 0.221052 0.870769
vt 0.106670 0.842829
vt 0.158439 0.860970
vt 0.126604 0.926678
vt 0.036922 0.858709
vt 0.957538 0.317434
vt 0.168007 0.929783
vt 0.255158 0.891648
vt 0.236231 0.931092
vt 0.098381 0.792381
vt 0.937644 0.227833
vt 0.128403 0.794670
vt 0.221052 0.870769
vt 0.106670 0.842829
vt 0.158439 0.860970
vt 0.052240 0.899216
vt 0.126604 0.926678
vt 0.886514 0.294809
s 1
usemtl Queen
f 9/13/1 4/7/1 2/3/1 11/15/1
f 16/22/2 5/8/2 6/9/2 7/10/2
f 3/4/3 5/8/3 16/22/3 1/1/3
f 4/6/4 6/9/4 5/8/4 3/4/4
f 9/13/5 7/10/5 6/9/5 4/7/5
f 3/5/6 1/2/6 18/24/6
f 9/13/7 11/15/7 10/14/7 13/19/7
f 16/22/8 17/23/8 15/21/8 14/20/8
f 12/16/9 8/11/9 16/22/9 14/20/9
f 13/18/10 12/16/10 14/20/10 15/21/10
f 9/13/11 13/19/11 15/21/11 17/23/11
f 12/17/12 18/24/13 8/12/13
