# Blender 3.5.1
# www.blender.org
mtllib Queen1.mtl
o Queen.001
v -2.780912 -0.000000 -0.379471
v -3.219087 -0.000000 -0.379471
v -2.780912 0.090078 -0.379471
v -3.219087 0.090078 -0.379471
v -2.795728 0.149978 -0.353810
v -3.204272 0.149978 -0.353810
v -2.834116 0.180315 -0.287319
v -3.165884 0.180315 -0.287319
v -3.438175 -0.000000 0.000000
v -2.561825 0.000000 -0.000000
v -2.780912 0.000000 0.379471
v -3.219087 0.000000 0.379471
v -3.438175 0.090078 -0.000000
v -2.561825 0.090078 -0.000000
v -2.780912 0.090078 0.379471
v -3.219087 0.090078 0.379471
v -3.408544 0.149978 -0.000000
v -2.591456 0.149978 -0.000000
v -2.795728 0.149978 0.353810
v -3.204272 0.149978 0.353810
v -2.668232 0.180315 -0.000000
v -2.834116 0.180315 0.287319
v -3.165884 0.180315 0.287319
v -3.331768 0.180315 -0.000000
v -3.000000 0.000000 0.000000
vn -0.8660 -0.0000 -0.5000
vn -0.0000 -0.0000 -1.0000
vn 0.8660 -0.0000 -0.5000
vn -0.7961 0.3938 -0.4596
vn -0.0000 0.3938 -0.9192
vn 0.7961 0.3938 -0.4596
vn 0.3595 0.9098 -0.2075
vn -0.0000 0.9098 -0.4151
vn -0.3595 0.9098 -0.2075
vn -0.0000 -1.0000 -0.0000
vn -0.8660 -0.0000 0.5000
vn -0.0000 -0.0000 1.0000
vn 0.8660 -0.0000 0.5000
vn -0.7961 0.3938 0.4596
vn -0.0000 0.3938 0.9192
vn 0.7961 0.3938 0.4596
vn 0.3595 0.9098 0.2075
vn -0.0000 0.9098 0.4151
vn -0.3595 0.9098 0.2075
vt 0.034610 0.393209
vt 0.412413 0.014566
vt 0.034610 0.393209
vt 0.412319 0.014521
vt 0.074980 0.436027
vt 0.452756 0.057411
vt 0.074979 0.436027
vt 0.452688 0.057339
vt 0.469167 0.101208
vt 0.116955 0.454199
vt 0.469122 0.101119
vt 0.116954 0.454199
vt 0.468802 0.169141
vt 0.182799 0.455763
vt 0.468784 0.169037
vt 0.182798 0.455763
vt 0.412319 0.014520
vt 0.034637 0.393182
vt 0.034610 0.393209
vt 0.412413 0.014566
vt 0.034610 0.393209
vt 0.412319 0.014521
vt 0.452688 0.057339
vt 0.074979 0.436028
vt 0.074980 0.436027
vt 0.452756 0.057411
vt 0.074979 0.436027
vt 0.452688 0.057339
vt 0.469122 0.101119
vt 0.116937 0.454221
vt 0.469167 0.101208
vt 0.116955 0.454199
vt 0.469122 0.101119
vt 0.116954 0.454199
vt 0.182766 0.455813
vt 0.468802 0.169141
vt 0.182799 0.455763
vt 0.468784 0.169037
vt 0.182798 0.455763
vt 0.468784 0.169036
vt 0.053401 0.023484
vt 0.053574 0.023380
s 1
usemtl Queen
f 2/3/1 9/17/1 13/23/1 4/7/1
f 1/1/2 2/4/2 4/8/2 3/5/2
f 10/18/3 1/2/3 3/6/3 14/24/3
f 4/7/4 13/23/4 17/29/4 6/12/4
f 3/5/5 4/8/5 6/11/5 5/10/5
f 14/24/6 3/6/6 5/9/6 18/30/6
f 18/30/7 5/9/7 7/13/7 21/35/7
f 5/10/8 6/11/8 8/15/8 7/14/8
f 6/12/9 17/29/9 24/40/9 8/16/9
f 9/17/10 2/3/10 25/41/10
f 2/4/10 1/1/10 25/41/10
f 10/18/10 25/42/10 1/2/10
f 12/21/11 16/27/11 13/23/11 9/17/11
f 11/19/12 15/25/12 16/28/12 12/22/12
f 10/18/13 14/24/13 15/26/13 11/20/13
f 16/27/14 20/34/14 17/29/14 13/23/14
f 15/25/15 19/32/15 20/33/15 16/28/15
f 14/24/16 18/30/16 19/31/16 15/26/16
f 18/30/17 21/35/17 22/36/17 19/31/17
f 19/32/18 22/37/18 23/38/18 20/33/18
f 20/34/19 23/39/19 24/40/19 17/29/19
f 9/17/10 25/41/10 12/21/10
f 12/22/10 25/41/10 11/19/10
f 10/18/10 11/20/10 25/42/10
