# Blender 3.5.1
# www.blender.org
mtllib Queen6.mtl
o Queen.006
v -2.939183 1.166549 -0.105331
v -3.060809 1.166549 -0.105331
v -2.917562 1.115991 -0.142772
v -3.082428 1.115984 -0.142776
v -2.917514 1.153870 -0.142909
v -3.082531 1.153870 -0.142909
v -2.907661 1.140687 -0.159962
v -3.092365 1.140698 -0.159959
v -3.121171 1.166631 -0.000000
v -2.878371 1.166549 -0.000000
v -2.939183 1.166549 0.105331
v -3.060809 1.166549 0.105331
v -3.164606 1.116031 -0.000000
v -2.835132 1.115991 -0.000000
v -2.917562 1.115991 0.142772
v -3.082428 1.115984 0.142776
v -3.164443 1.153965 -0.000000
v -2.835006 1.153870 -0.000000
v -2.917514 1.153870 0.142909
v -3.082531 1.153870 0.142909
v -2.907661 1.140687 0.159962
v -3.092365 1.140698 0.159959
v -3.184271 1.140736 -0.000000
v -2.815307 1.140687 -0.000000
vn 0.2770 0.9475 -0.1599
vn -0.0000 0.9475 -0.3197
vn -0.2772 0.9475 -0.1596
vn -0.5297 0.7917 -0.3044
vn -0.0000 0.7913 -0.6115
vn 0.5295 0.7913 -0.3057
vn 0.7111 -0.5708 -0.4105
vn -0.0000 -0.5711 -0.8209
vn -0.7127 -0.5694 -0.4097
vn 0.2770 0.9475 0.1599
vn -0.0000 0.9475 0.3197
vn -0.2772 0.9475 0.1596
vn -0.5297 0.7917 0.3044
vn -0.0000 0.7913 0.6115
vn 0.5295 0.7913 0.3057
vn 0.7111 -0.5708 0.4105
vn -0.0000 -0.5711 0.8209
vn -0.7127 -0.5694 0.4097
vt 0.939532 0.856075
vt 0.835074 0.960746
vt 0.939917 0.855632
vt 0.835088 0.960710
vt 0.917287 0.793984
vt 0.775518 0.936032
vt 0.917627 0.793555
vt 0.775524 0.936033
vt 0.798622 0.960622
vt 0.940496 0.818463
vt 0.798579 0.960652
vt 0.940867 0.818008
vt 0.939325 0.799704
vt 0.780469 0.958891
vt 0.939688 0.799259
vt 0.780415 0.958946
vt 0.939834 0.855894
vt 0.834670 0.961169
vt 0.939532 0.856075
vt 0.835074 0.960746
vt 0.939917 0.855632
vt 0.835088 0.960710
vt 0.917623 0.793749
vt 0.775153 0.936434
vt 0.917287 0.793984
vt 0.775518 0.936032
vt 0.917627 0.793555
vt 0.775524 0.936033
vt 0.940691 0.818431
vt 0.798224 0.961050
vt 0.798622 0.960622
vt 0.940496 0.818463
vt 0.798579 0.960652
vt 0.940867 0.818008
vt 0.939325 0.799704
vt 0.780469 0.958891
vt 0.939688 0.799259
vt 0.780415 0.958946
vt 0.939507 0.799593
vt 0.780077 0.959306
s 1
usemtl Queen
f 5/10/1 1/1/1 10/18/1 18/30/1
f 6/12/2 2/3/2 1/2/2 5/9/2
f 17/29/3 9/17/3 2/4/3 6/11/3
f 23/39/4 17/29/4 6/11/4 8/16/4
f 8/15/5 6/12/5 5/9/5 7/14/5
f 7/13/6 5/10/6 18/30/6 24/40/6
f 3/5/7 7/13/7 24/40/7 14/24/7
f 4/7/8 8/15/8 7/14/8 3/6/8
f 13/23/9 23/39/9 8/16/9 4/8/9
f 19/32/10 18/30/10 10/18/10 11/19/10
f 20/34/11 19/31/11 11/20/11 12/21/11
f 17/29/12 20/33/12 12/22/12 9/17/12
f 23/39/13 22/38/13 20/33/13 17/29/13
f 22/37/14 21/36/14 19/31/14 20/34/14
f 21/35/15 24/40/15 18/30/15 19/32/15
f 15/25/16 14/24/16 24/40/16 21/35/16
f 16/27/17 15/26/17 21/36/17 22/37/17
f 13/23/18 16/28/18 22/38/18 23/39/18
