# Blender 3.5.1
# www.blender.org
mtllib Knight1.mtl
o Knight.001
v -0.776071 -0.000000 -0.387857
v -1.223929 -0.000000 -0.387857
v -0.776071 0.092069 -0.387857
v -1.223929 0.092069 -0.387857
v -0.791213 0.153292 -0.361629
v -1.208786 0.153292 -0.361629
v -0.830450 0.184300 -0.293669
v -1.169550 0.184300 -0.293669
v -1.447859 -0.000000 0.000000
v -0.552141 0.000000 -0.000000
v -0.776071 0.000000 0.387857
v -1.223929 0.000000 0.387857
v -1.447859 0.092069 -0.000000
v -0.552141 0.092069 -0.000000
v -0.776071 0.092069 0.387857
v -1.223929 0.092069 0.387857
v -1.417573 0.153292 -0.000000
v -0.582427 0.153293 -0.000000
v -0.791213 0.153293 0.361629
v -1.208786 0.153293 0.361629
v -0.660900 0.184300 -0.000000
v -0.830450 0.184300 0.293669
v -1.169550 0.184300 0.293669
v -1.339100 0.184300 -0.000000
v -1.000000 0.000000 0.000000
vn -0.8660 -0.0000 -0.5000
vn 0.8660 -0.0000 -0.5000
vn -0.7961 0.3938 -0.4596
vn 0.7961 0.3938 -0.4596
vn 0.3595 0.9098 -0.2075
vn -0.3595 0.9098 -0.2075
vn -0.0000 -1.0000 -0.0000
vn -0.8660 -0.0000 0.5000
vn 0.8660 -0.0000 0.5000
vn -0.7961 0.3938 0.4596
vn 0.7961 0.3938 0.4596
vn 0.3595 0.9098 0.2075
vn -0.3595 0.9098 0.2075
vn -0.0000 0.9098 0.4151
vn -0.0000 0.3938 0.9192
vn -0.0000 -0.0000 1.0000
vn -0.0000 0.9098 -0.4151
vn -0.0000 0.3938 -0.9192
vn -0.0000 -0.0000 -1.0000
vt 0.802806 0.108920
vt 0.743632 0.451863
vt 0.802806 0.108920
vt 0.923431 0.560976
vt 0.782459 0.143607
vt 0.721201 0.488825
vt 0.782459 0.143607
vt 0.901000 0.597938
vt 0.773445 0.172046
vt 0.711053 0.519254
vt 0.773445 0.172046
vt 0.878693 0.620989
vt 0.771719 0.208860
vt 0.708606 0.558803
vt 0.771719 0.208859
vt 0.844742 0.641418
vt 0.971533 0.207893
vt 0.718771 0.177372
vt 0.971533 0.207893
vt 0.718771 0.177372
vt 0.624712 0.011074
vt 0.572241 0.453701
vt 0.624712 0.011074
vt 0.569112 0.271190
vt 0.951187 0.242580
vt 0.684584 0.196708
vt 0.951187 0.242579
vt 0.684584 0.196708
vt 0.590525 0.030410
vt 0.534721 0.454344
vt 0.590525 0.030410
vt 0.531592 0.271833
vt 0.930763 0.264326
vt 0.656672 0.205074
vt 0.930763 0.264326
vt 0.656672 0.205074
vt 0.568974 0.050021
vt 0.507473 0.448639
vt 0.568974 0.050021
vt 0.504555 0.278470
vt 0.899473 0.283798
vt 0.620695 0.206193
vt 0.549477 0.080279
vt 0.476757 0.433171
vt 0.549477 0.080279
vt 0.474388 0.294981
vt 0.899473 0.283798
vt 0.620695 0.206193
vt 0.928025 0.350709
vt 0.972882 0.012284
vt 0.728736 0.359736
vt 0.815760 0.012765
s 1
usemtl Knight
f 2/3/1 9/17/1 13/25/1 4/7/1
f 10/19/2 1/1/2 3/5/2 14/27/2
f 4/7/3 13/25/3 17/33/3 6/11/3
f 14/27/4 3/5/4 5/9/4 18/35/4
f 18/35/5 5/9/5 7/13/5 21/41/5
f 6/11/6 17/33/6 24/47/6 8/15/6
f 9/17/7 2/3/7 25/50/7
f 2/4/7 1/2/7 25/49/7
f 10/19/7 25/50/7 1/1/7
f 12/23/8 16/31/8 13/26/8 9/18/8
f 10/20/9 14/28/9 15/29/9 11/21/9
f 16/31/10 20/39/10 17/34/10 13/26/10
f 14/28/11 18/36/11 19/37/11 15/29/11
f 18/36/12 21/42/12 22/43/12 19/37/12
f 20/39/13 23/45/13 24/48/13 17/34/13
f 9/18/7 25/52/7 12/23/7
f 12/24/7 25/51/7 11/22/7
f 10/20/7 11/21/7 25/52/7
f 22/44/14 23/46/14 20/40/14 19/38/14
f 19/38/15 20/40/15 16/32/15 15/30/15
f 15/30/16 16/32/16 12/24/16 11/22/16
f 5/10/17 6/12/17 8/16/17 7/14/17
f 3/6/18 4/8/18 6/12/18 5/10/18
f 1/2/19 2/4/19 4/8/19 3/6/19
