# Blender 3.5.1
# www.blender.org
mtllib Knight10.mtl
o Knight.010
v -1.123350 0.978529 -0.022584
v -1.098044 0.978529 -0.245485
v -0.901956 0.978529 -0.245485
v -0.876650 0.978529 -0.022584
v -1.094410 1.113485 0.050249
v -1.075040 1.113485 -0.121774
v -0.924960 1.113485 -0.121774
v -0.905590 1.113485 0.050249
v -1.075040 1.113485 0.222272
v -0.924960 1.113485 0.222272
v -1.042320 1.182034 0.050249
v -1.033637 1.182034 -0.013745
v -0.966363 1.182034 -0.013745
v -0.957680 1.182034 0.050249
v -1.033637 1.182034 0.114244
v -0.966363 1.182034 0.114244
v -1.032681 0.978529 -0.245485
v -0.967319 0.978529 -0.245485
v -1.025013 1.113485 -0.121774
v -0.974987 1.113485 -0.121774
v -1.025808 1.182034 -0.013745
v -0.974192 1.182034 -0.013745
v -0.988788 1.182034 0.114244
v -1.011212 1.182034 0.114244
v -1.028580 1.182034 0.050249
v -0.971420 1.182034 0.050249
vn 0.9586 0.2634 -0.1084
vn -0.0000 0.6757 -0.7371
vn -0.9586 0.2634 -0.1084
vn 0.7849 0.6133 0.0884
vn -0.0000 0.8444 0.5358
vn -0.7867 0.6102 -0.0935
vn 0.7867 0.6102 -0.0935
vn -0.0000 0.8444 -0.5358
vn -0.0000 1.0000 -0.0000
vn -0.7849 0.6133 0.0884
vn -0.9823 0.1510 0.1106
vn 0.9823 0.1510 0.1106
vt 0.307333 0.153691
vt 0.728843 0.935466
vt 0.301531 0.039431
vt 0.301531 0.039431
vt 0.728843 0.761061
vt 0.307333 0.153691
vt 0.380467 0.186006
vt 0.376898 0.097056
vt 0.656605 0.915007
vt 0.376898 0.097056
vt 0.656605 0.781521
vt 0.380467 0.186006
vt 0.505139 0.915008
vt 0.386448 0.274319
vt 0.505139 0.781520
vt 0.386448 0.274319
vt 0.429981 0.155577
vt 0.580872 0.885905
vt 0.429202 0.122350
vt 0.606123 0.878182
vt 0.429202 0.122350
vt 0.606123 0.818346
vt 0.429981 0.155577
vt 0.580872 0.810623
vt 0.434319 0.243704
vt 0.555622 0.878182
vt 0.434319 0.243704
vt 0.555622 0.818346
vt 0.728843 0.877331
vt 0.728843 0.819196
vt 0.656605 0.870511
vt 0.656605 0.826016
vt 0.606123 0.871219
vt 0.606123 0.825309
vt 0.555622 0.838291
vt 0.555622 0.858237
vt 0.580872 0.873684
vt 0.580872 0.822844
s 1
usemtl Knight
f 4/6/1 3/4/1 7/10/1 8/12/1
f 17/29/2 2/2/2 6/9/2 19/31/2
f 2/3/3 1/1/3 5/7/3 6/8/3
f 10/16/4 8/12/4 16/27/4
f 10/15/5 16/28/5 23/35/5
f 6/8/6 5/7/6 11/17/6 12/19/6
f 8/12/7 7/10/7 13/21/7 14/23/7
f 19/31/8 6/9/8 12/20/8 21/33/8
f 26/38/9 14/24/9 13/22/9 22/34/9
f 24/36/9 25/37/9 11/18/9 15/26/9
f 15/25/10 5/7/10 9/14/10
f 16/28/9 14/24/9 26/38/9 23/35/9
f 11/18/9 25/37/9 21/33/9 12/20/9
f 7/11/8 20/32/8 22/34/8 13/22/8
f 9/13/5 24/36/5 15/26/5
f 9/13/5 10/15/5 23/35/5 24/36/5
f 3/5/2 18/30/2 20/32/2 7/11/2
f 9/14/11 5/7/11 1/1/11
f 10/16/12 4/6/12 8/12/12
