# Blender 3.5.1
# www.blender.org
mtllib Knight4.mtl
o Knight.004
v -0.967766 0.428809 -0.206949
v -1.032234 0.428809 -0.206949
v -1.047605 0.526534 -0.275879
v -0.952395 0.526534 -0.275879
v -1.038051 0.828578 -0.300170
v -0.961949 0.828578 -0.300170
v -1.043963 0.642210 -0.303030
v -0.956037 0.642210 -0.303030
v -1.038805 0.749318 -0.305336
v -0.961195 0.749318 -0.305336
v -1.032681 0.978529 -0.245485
v -0.967319 0.978529 -0.245485
v -1.025013 1.113485 -0.121774
v -0.974987 1.113485 -0.121774
v -1.025808 1.182034 -0.013745
v -0.974192 1.182034 -0.013745
v -0.988788 1.182034 0.114244
v -1.011212 1.182034 0.114244
v -1.028580 1.182034 0.050249
v -0.971420 1.182034 0.050249
v -1.047605 0.505189 -0.346771
v -0.952395 0.505189 -0.346771
v -1.038051 0.843660 -0.372653
v -0.961949 0.843660 -0.372653
v -1.043963 0.632684 -0.376450
v -0.956037 0.632684 -0.376450
v -1.038805 0.750865 -0.379356
v -0.961195 0.750865 -0.379356
v -1.032681 1.016621 -0.308971
v -0.967319 1.016621 -0.308971
v -1.025013 1.170168 -0.169401
v -0.974987 1.170168 -0.169401
v -1.025808 1.253235 -0.034036
v -0.974192 1.253235 -0.034036
v -0.988788 1.227503 0.161602
v -1.011212 1.227503 0.161602
v -1.028580 1.256070 0.050249
v -0.971420 1.256070 0.050249
vn 0.9992 0.0299 0.0255
vn 0.9994 0.0295 0.0184
vn -0.0000 -0.7214 0.6926
vn 0.9909 -0.1286 0.0387
vn -0.9996 0.0285 -0.0061
vn -0.9909 -0.1286 0.0387
vn -1.0000 -0.0026 -0.0049
vn 0.9996 0.0285 -0.0061
vn 1.0000 -0.0026 -0.0049
vn 0.9993 -0.0052 -0.0373
vn -0.0000 0.9686 0.2485
vn -0.0000 0.9994 -0.0336
vn -0.0000 0.8523 -0.5230
vn -0.0000 0.6726 -0.7400
vn -0.0000 0.3455 -0.9384
vn -0.0000 -0.2267 -0.9740
vn -0.0000 -0.0246 -0.9997
vn -0.0000 -0.8776 -0.4794
vn -0.0000 0.0720 -0.9974
vn 0.9311 -0.2632 0.2527
vn 1.0000 0.0087 0.0010
vn 0.9990 0.0457 -0.0025
vn -0.9994 0.0295 0.0184
vn -0.9992 0.0299 0.0255
vn -0.9881 -0.0000 0.1541
vn -1.0000 0.0087 0.0010
vn -0.9990 0.0457 -0.0025
vn 0.9995 0.0291 0.0114
vn -0.9993 -0.0052 -0.0373
vn -0.9995 0.0291 0.0114
vn -0.9311 -0.2632 0.2527
vn 0.9881 -0.0000 0.1541
vt 0.052257 0.661998
vt 0.029631 0.587715
vt 0.052037 0.442055
vt 0.029631 0.518438
vt 0.105398 0.459419
vt 0.104810 0.645876
vt 0.264296 0.477484
vt 0.262199 0.632054
vt 0.167394 0.468379
vt 0.165769 0.638156
vt 0.223008 0.473291
vt 0.221365 0.634896
vt 0.346836 0.480534
vt 0.344593 0.631941
vt 0.441042 0.489369
vt 0.439093 0.627308
vt 0.508728 0.492320
vt 0.506279 0.627608
vt 0.631537 0.576243
vt 0.578475 0.618887
vt 0.632426 0.556910
vt 0.581079 0.505719
vt 0.544681 0.493037
vt 0.542085 0.628789
vt 0.099050 0.513257
vt 0.099050 0.592897
vt 0.263184 0.527555
vt 0.261832 0.582223
vt 0.164549 0.520717
vt 0.163334 0.586198
vt 0.220248 0.524430
vt 0.219524 0.584003
vt 0.345016 0.532767
vt 0.343790 0.579684
vt 0.438791 0.539397
vt 0.438072 0.577319
vt 0.507030 0.543520
vt 0.505743 0.576719
vt 0.595849 0.572996
vt 0.596739 0.553663
vt 0.540336 0.541673
vt 0.539394 0.579825
s 1
usemtl Knight
f 14/16/1 12/14/2 30/34/2 32/36/1
f 18/21/3 17/19/3 35/39/3 36/40/3
f 4/6/4 1/1/4 22/26/4
f 3/5/5 7/9/5 25/29/5 21/25/5
f 2/3/6 3/5/6 21/25/6
f 13/15/7 15/17/7 33/37/7 31/35/7
f 8/10/8 4/6/8 22/26/8 26/30/8
f 16/18/9 14/16/9 32/36/9 34/38/9
f 20/24/10 16/18/10 34/38/10 38/42/10
f 35/39/11 38/42/11 37/41/11 36/40/11
f 37/41/12 38/42/12 34/38/12 33/37/12
f 32/36/13 31/35/13 33/37/13 34/38/13
f 30/34/14 29/33/14 31/35/14 32/36/14
f 24/28/15 23/27/15 29/33/15 30/34/15
f 22/26/16 21/25/16 25/29/16 26/30/16
f 26/30/17 25/29/17 27/31/17 28/32/17
f 2/4/18 21/25/18 22/26/18 1/2/18
f 28/32/19 27/31/19 23/27/19 24/28/19
f 17/20/20 20/24/20 35/39/20
f 6/8/21 10/12/21 28/32/21 24/28/21
f 10/12/22 8/10/22 26/30/22 28/32/22
f 11/13/23 13/15/24 31/35/24 29/33/23
f 19/23/25 36/40/25 37/41/25
f 9/11/26 5/7/26 23/27/26 27/31/26
f 7/9/27 9/11/27 27/31/27 25/29/27
f 12/14/2 6/8/28 24/28/28 30/34/2
f 15/17/29 19/23/29 37/41/29 33/37/29
f 5/7/30 11/13/23 29/33/23 23/27/30
f 36/40/31 19/23/31 18/22/31
f 35/39/32 20/24/32 38/42/32
