# Blender 3.5.1
# www.blender.org
mtllib Knight9.mtl
o Knight.009
v -1.123137 0.828578 -0.088991
v -1.097874 0.828578 -0.300170
v -0.902126 0.828578 -0.300170
v -0.876863 0.828578 -0.088991
v -1.097874 0.828578 0.122188
v -0.902126 0.828578 0.122188
v -0.900187 0.749318 0.097364
v -1.099813 0.749318 0.097364
v -0.874424 0.749318 -0.103986
v -0.900187 0.749318 -0.305336
v -1.099813 0.749318 -0.305336
v -1.125576 0.749318 -0.103986
v -1.123350 0.978529 -0.022584
v -1.098044 0.978529 -0.245485
v -0.901956 0.978529 -0.245485
v -0.876650 0.978529 -0.022584
v -1.038051 0.828578 -0.300170
v -0.961949 0.828578 -0.300170
v -1.038805 0.749318 -0.305336
v -0.961195 0.749318 -0.305336
v -1.032681 0.978529 -0.245485
v -0.967319 0.978529 -0.245485
vn -0.0000 0.0650 -0.9979
vn 0.9915 0.0430 -0.1226
vn 0.9922 0.0453 -0.1161
vn 0.9916 0.0432 -0.1221
vn -0.0000 -0.2989 0.9543
vn 0.9924 -0.0034 0.1228
vn -0.9924 -0.0034 0.1228
vn -0.9915 0.0430 -0.1226
vn -0.9916 0.0432 -0.1221
vn -0.9922 0.0453 -0.1161
vn -0.0000 0.3426 -0.9395
vn 0.9923 0.0454 -0.1156
vn -0.9915 -0.0539 0.1186
vn -0.9923 0.0454 -0.1156
vn 0.9915 -0.0539 0.1186
vt 0.228927 0.124934
vt 0.791821 0.935314
vt 0.223329 0.015740
vt 0.223329 0.015740
vt 0.791821 0.761212
vt 0.228927 0.124934
vt 0.213928 0.935316
vt 0.236709 0.233822
vt 0.213928 0.761211
vt 0.236709 0.233822
vt 0.181156 0.759486
vt 0.195378 0.224039
vt 0.181156 0.937041
vt 0.195378 0.224039
vt 0.187710 0.119827
vt 0.182774 0.015268
vt 0.823161 0.759487
vt 0.823161 0.937039
vt 0.182774 0.015268
vt 0.187710 0.119827
vt 0.307333 0.153691
vt 0.728843 0.935466
vt 0.301531 0.039431
vt 0.301531 0.039431
vt 0.728843 0.761061
vt 0.307333 0.153691
vt 0.791821 0.882106
vt 0.791821 0.814420
vt 0.823161 0.882776
vt 0.823161 0.813750
vt 0.728843 0.877331
vt 0.728843 0.819196
s 1
usemtl Knight
f 19/29/1 11/18/1 2/2/1 17/27/1
f 9/15/2 10/16/2 3/4/3 4/6/4
f 8/13/5 7/11/5 6/9/5 5/7/5
f 7/12/6 9/15/6 4/6/6 6/10/6
f 12/20/7 8/14/7 5/8/7 1/1/7
f 11/19/8 12/20/8 1/1/9 2/3/10
f 17/27/11 2/2/11 14/22/11 21/31/11
f 4/6/4 3/4/3 15/24/12 16/26/12
f 1/1/13 5/8/13 13/21/13
f 2/3/10 1/1/9 13/21/14 14/23/14
f 3/5/11 18/28/11 22/32/11 15/25/11
f 10/17/1 20/30/1 18/28/1 3/5/1
f 16/26/15 6/10/15 4/6/15
