# Blender 3.5.1
# www.blender.org
mtllib Knight3.mtl
o Knight.003
v -0.904575 0.420879 -0.206337
v -1.095425 0.420879 -0.206337
v -1.119850 0.437108 -0.002201
v -0.880150 0.437108 -0.002201
v -0.904599 0.420724 0.201705
v -1.095401 0.420724 0.201705
v -0.967766 0.428809 -0.206949
v -1.032234 0.428809 -0.206949
v -0.864821 0.326714 -0.002201
v -1.135179 0.326714 -0.002201
v -0.892369 0.310484 -0.206337
v -1.107631 0.310484 -0.206337
v -0.892397 0.310329 0.201705
v -1.107603 0.310329 0.201705
vn -0.6611 0.0731 0.7467
vn -0.6475 -0.3568 0.6734
vn -0.9917 0.1290 0.0002
vn -0.6626 0.0710 -0.7456
vn -0.0747 -0.4250 -0.9021
vn 0.0747 -0.4250 -0.9021
vn 0.6626 0.0710 -0.7456
vn 0.6475 -0.3568 0.6734
vn 0.6611 0.0731 0.7467
vn 0.9917 0.1290 0.0002
vn 0.6372 -0.3245 -0.6990
vn -0.6372 -0.3245 -0.6990
vn -0.9731 -0.2306 -0.0019
vn 0.9731 -0.2306 -0.0019
vt 0.678465 0.645984
vt 0.744124 0.290317
vt 0.781324 0.708406
vt 0.744124 0.290316
vt 0.804433 0.367222
vt 0.499518 0.230108
vt 0.499518 0.230108
vt 0.804433 0.367222
vt 0.398221 0.417623
vt 0.486248 0.135579
vt 0.396430 0.313212
vt 0.486248 0.135579
vt 0.712751 0.666791
vt 0.747038 0.687599
vt 0.538282 0.230169
vt 0.838797 0.347365
vt 0.838797 0.347365
vt 0.538282 0.230169
vt 0.745266 0.271737
vt 0.679574 0.626001
vt 0.745266 0.271736
vt 0.798539 0.698196
vt 0.496317 0.120441
vt 0.413685 0.425534
vt 0.496317 0.120441
vt 0.411615 0.304775
s 1
usemtl Knight
f 14/25/1 6/12/2 10/18/3
f 12/22/4 8/14/5 7/13/6 11/20/7
f 5/10/8 13/23/9 9/15/10
f 9/16/10 11/19/7 1/2/11
f 12/21/4 10/17/3 2/4/12
f 5/9/8 6/11/2 14/26/1 13/24/9
f 11/20/7 7/13/6 1/1/11
f 8/14/5 12/22/4 2/3/12
f 2/4/12 10/17/3 3/5/13
f 10/18/3 6/12/2 3/6/13
f 9/15/10 4/7/14 5/10/8
f 1/2/11 4/8/14 9/16/10
