# Blender 3.5.1
# www.blender.org
mtllib Knight2.mtl
o Knight.002
v -0.815954 0.237341 -0.317989
v -1.184046 0.237341 -0.317989
v -0.831361 0.293309 -0.291451
v -1.168639 0.293310 -0.291451
v -0.830450 0.184300 -0.293669
v -1.169550 0.184300 -0.293669
v -1.365699 0.236363 -0.000332
v -0.634301 0.236363 -0.000332
v -0.815819 0.237418 0.318066
v -1.184181 0.237418 0.318066
v -1.336251 0.286064 0.000167
v -0.663749 0.286064 0.000167
v -0.831565 0.293547 0.291323
v -1.168435 0.293547 0.291323
v -0.660900 0.184300 -0.000000
v -0.830450 0.184300 0.293669
v -1.169550 0.184300 0.293669
v -1.339100 0.184300 -0.000000
v -0.864821 0.326714 -0.002201
v -1.135179 0.326714 -0.002201
v -0.892369 0.310484 -0.206337
v -1.107631 0.310484 -0.206337
v -0.892397 0.310329 0.201705
v -1.107603 0.310329 0.201705
vn -0.7887 -0.4148 -0.4538
vn 0.7887 -0.4148 -0.4538
vn -0.7800 0.4439 -0.4411
vn -0.0000 0.4284 -0.9036
vn 0.7800 0.4439 -0.4411
vn 0.6634 0.7483 0.0017
vn 0.3319 0.7574 -0.5623
vn 0.0946 0.9858 -0.1389
vn -0.7896 -0.4133 0.4536
vn 0.7896 -0.4133 0.4536
vn -0.7806 0.4427 0.4412
vn 0.7806 0.4428 0.4412
vn 0.0932 0.9871 0.1304
vn -0.0932 0.9871 0.1305
vn -0.3302 0.7596 0.5603
vn 0.3302 0.7596 0.5603
vn -0.0000 0.4301 0.9028
vn -0.0000 -0.4174 0.9087
vn -0.3319 0.7574 -0.5623
vn -0.0946 0.9858 -0.1389
vn -0.0000 -0.4168 -0.9090
vn -0.6634 0.7483 0.0017
vn 0.1982 0.9802 -0.0004
vn -0.1982 0.9802 -0.0004
vt 0.753731 0.227597
vt 0.688966 0.578657
vt 0.753731 0.227596
vt 0.836198 0.668006
vt 0.746408 0.253157
vt 0.680683 0.606017
vt 0.815753 0.687986
vt 0.746408 0.253156
vt 0.771719 0.208860
vt 0.708606 0.558803
vt 0.771719 0.208859
vt 0.844742 0.641418
vt 0.891897 0.308642
vt 0.602120 0.223472
vt 0.891897 0.308642
vt 0.602120 0.223472
vt 0.525098 0.087295
vt 0.453283 0.439206
vt 0.525098 0.087295
vt 0.450721 0.289754
vt 0.577046 0.230230
vt 0.873161 0.327508
vt 0.873161 0.327508
vt 0.577046 0.230230
vt 0.429150 0.433446
vt 0.506386 0.105302
vt 0.426799 0.296338
vt 0.506386 0.105302
vt 0.899473 0.283798
vt 0.620695 0.206193
vt 0.549477 0.080279
vt 0.476757 0.433171
vt 0.549477 0.080279
vt 0.474388 0.294981
vt 0.899473 0.283798
vt 0.620695 0.206193
vt 0.538282 0.230169
vt 0.838797 0.347365
vt 0.538282 0.230169
vt 0.838797 0.347365
vt 0.679574 0.626001
vt 0.745266 0.271737
vt 0.798539 0.698196
vt 0.745266 0.271736
vt 0.413685 0.425534
vt 0.496317 0.120441
vt 0.411615 0.304775
vt 0.496317 0.120441
s 1
usemtl Knight
f 6/11/1 18/35/1 7/13/1 2/3/1
f 15/29/2 5/9/2 1/1/2 8/15/2
f 2/3/3 7/13/3 11/22/3 4/8/3
f 1/2/4 2/4/4 4/7/4 3/6/4
f 8/15/5 1/1/5 3/5/5 12/23/5
f 12/23/6 3/5/7 21/42/8
f 17/33/9 10/19/9 7/14/9 18/36/9
f 15/30/10 8/16/10 9/17/10 16/31/10
f 10/19/11 14/28/11 11/21/11 7/14/11
f 8/16/12 12/24/12 13/26/12 9/17/12
f 23/45/13 24/47/14 14/27/15 13/25/16
f 13/25/17 14/27/17 10/20/17 9/18/17
f 9/18/18 10/20/18 17/34/18 16/32/18
f 4/7/19 22/43/20 21/41/8 3/6/7
f 5/10/21 6/12/21 2/4/21 1/2/21
f 4/8/19 11/22/22 22/44/20
f 14/28/15 24/48/14 11/21/22
f 23/46/13 12/24/6 19/37/23
f 21/42/8 19/38/23 12/23/6
f 12/24/6 23/46/13 13/26/16
f 11/21/22 24/48/14 20/39/24
f 22/44/20 11/22/22 20/40/24
