# Blender 3.5.1
# www.blender.org
mtllib Knight.mtl
o Knight
v -1.097874 0.828578 0.122188
v -0.902126 0.828578 0.122188
v -1.123350 0.978529 -0.022584
v -0.876650 0.978529 -0.022584
v -1.113879 0.978529 0.200317
v -0.886121 0.978529 0.200317
v -1.075040 1.113485 0.222272
v -0.924960 1.113485 0.222272
v -1.089822 0.908508 0.241414
v -0.910178 0.908508 0.241414
v -1.077873 1.032147 0.261528
v -0.922127 1.032147 0.261528
v -1.090956 0.820046 0.248212
v -0.909044 0.820046 0.248212
v -1.090956 0.803689 0.181924
v -0.909044 0.803689 0.181924
vn -0.0000 -0.9709 0.2396
vn 0.9909 -0.1277 0.0421
vn -0.9619 0.2702 0.0409
vn 0.9619 0.2702 0.0409
vn -0.9114 0.2042 0.3573
vn 0.8623 0.0010 0.5064
vn -0.0000 -0.9231 -0.3846
vn 0.9890 -0.1358 0.0580
vn -0.9905 -0.1333 0.0329
vn -0.9890 -0.1358 0.0580
vn -0.8185 0.0544 0.5719
vn -0.0000 0.4347 0.9006
vn 0.8185 0.0544 0.5719
vn 0.9905 -0.1333 0.0329
vn -0.9909 -0.1277 0.0421
vn 0.9114 0.2042 0.3573
vn -0.8623 0.0010 0.5064
vt 0.213928 0.935316
vt 0.236709 0.233822
vt 0.213928 0.761211
vt 0.236709 0.233822
vt 0.307333 0.153691
vt 0.307333 0.153691
vt 0.316002 0.263745
vt 0.316002 0.263745
vt 0.386448 0.274319
vt 0.505139 0.915008
vt 0.505139 0.781520
vt 0.386448 0.274319
vt 0.283397 0.290699
vt 0.283397 0.290699
vt 0.469502 0.917527
vt 0.346276 0.296668
vt 0.469502 0.779001
vt 0.346276 0.296668
vt 0.266402 0.929163
vt 0.239043 0.298532
vt 0.266402 0.767364
vt 0.239043 0.298532
vt 0.239462 0.929163
vt 0.227371 0.266115
vt 0.239462 0.767364
vt 0.227371 0.266115
s 1
usemtl Knight
f 13/19/1 15/23/1 16/25/1 14/21/1
f 2/4/2 4/6/2 6/8/2
f 3/5/3 5/7/3 7/9/3
f 6/8/4 4/6/4 8/12/4
f 7/9/5 5/7/5 11/16/5
f 6/8/6 12/18/6 10/14/6
f 1/1/7 2/3/7 16/25/7 15/23/7
f 6/8/8 16/26/8 2/4/8
f 15/24/9 13/20/9 5/7/9
f 1/2/10 15/24/10 5/7/10
f 9/13/11 5/7/11 13/20/11
f 8/11/12 7/10/12 11/15/12 12/17/12
f 6/8/13 10/14/13 14/22/13
f 14/22/14 16/26/14 6/8/14
f 3/5/15 1/2/15 5/7/15
f 12/18/16 6/8/16 8/12/16
f 11/16/17 5/7/17 9/13/17
